<svg id="_0292_card_payment" xmlns="http://www.w3.org/2000/svg" xmlns:xlink="http://www.w3.org/1999/xlink" viewBox="0 0 500 500" data-imageid="card-payment-53" imageName="Card Payment" class="illustrations_image" style="width: 188px;"><defs><style>.cls-1_card-payment-53{fill:none;}.cls-1_card-payment-53,.cls-2_card-payment-53,.cls-3_card-payment-53,.cls-4_card-payment-53,.cls-5_card-payment-53,.cls-6_card-payment-53,.cls-7_card-payment-53,.cls-8_card-payment-53,.cls-9_card-payment-53,.cls-10_card-payment-53,.cls-11_card-payment-53,.cls-12_card-payment-53,.cls-13_card-payment-53,.cls-14_card-payment-53,.cls-15_card-payment-53,.cls-16_card-payment-53,.cls-17_card-payment-53,.cls-18_card-payment-53,.cls-19_card-payment-53,.cls-20_card-payment-53,.cls-21_card-payment-53,.cls-22_card-payment-53,.cls-23_card-payment-53,.cls-24_card-payment-53,.cls-25_card-payment-53,.cls-26_card-payment-53,.cls-27_card-payment-53{stroke-width:0px;}.cls-2_card-payment-53{fill:url(#linear-gradient);}.cls-3_card-payment-53{opacity:.51;}.cls-3_card-payment-53,.cls-24_card-payment-53{isolation:isolate;}.cls-3_card-payment-53,.cls-24_card-payment-53,.cls-27_card-payment-53{fill:#68e1fd;}.cls-4_card-payment-53{fill:url(#linear-gradient-11-card-payment-53);}.cls-5_card-payment-53{fill:url(#linear-gradient-12-card-payment-53);}.cls-6_card-payment-53{fill:url(#linear-gradient-13-card-payment-53);}.cls-7_card-payment-53{fill:url(#linear-gradient-10-card-payment-53);}.cls-8_card-payment-53{fill:url(#linear-gradient-17-card-payment-53);}.cls-9_card-payment-53{fill:url(#linear-gradient-16-card-payment-53);}.cls-10_card-payment-53{fill:url(#linear-gradient-19-card-payment-53);}.cls-11_card-payment-53{fill:url(#linear-gradient-15-card-payment-53);}.cls-12_card-payment-53{fill:url(#linear-gradient-21-card-payment-53);}.cls-13_card-payment-53{fill:url(#linear-gradient-18-card-payment-53);}.cls-14_card-payment-53{fill:url(#linear-gradient-14-card-payment-53);}.cls-15_card-payment-53{fill:url(#linear-gradient-20-card-payment-53);}.cls-16_card-payment-53{fill:url(#linear-gradient-4-card-payment-53);}.cls-17_card-payment-53{fill:url(#linear-gradient-2-card-payment-53);}.cls-18_card-payment-53{fill:url(#linear-gradient-3-card-payment-53);}.cls-19_card-payment-53{fill:url(#linear-gradient-8-card-payment-53);}.cls-20_card-payment-53{fill:url(#linear-gradient-9-card-payment-53);}.cls-21_card-payment-53{fill:url(#linear-gradient-7-card-payment-53);}.cls-22_card-payment-53{fill:url(#linear-gradient-5-card-payment-53);}.cls-23_card-payment-53{fill:url(#linear-gradient-6-card-payment-53);}.cls-24_card-payment-53{opacity:.24;}.cls-25_card-payment-53{fill:#fff;}.cls-26_card-payment-53{fill:#ffb4a3;}</style><linearGradient id="linear-gradient-card-payment-53" x1="-567.68" y1="2666.86" x2="-479.49" y2="2666.86" gradientTransform="translate(802.4 2862.05) scale(1 -1)" gradientUnits="userSpaceOnUse"><stop offset="0" stop-color="#231f20" stop-opacity="0"/><stop offset="1" stop-color="#231f20"/></linearGradient><linearGradient id="linear-gradient-2-card-payment-53" x1="-563.41" y1="2676.63" x2="-588.53" y2="2605.67" gradientTransform="translate(849 2865.64) scale(1 -1)" xlink:href="#linear-gradient-card-payment-53"/><linearGradient id="linear-gradient-3-card-payment-53" x1="-662.05" y1="2606.16" x2="-502.29" y2="2606.16" xlink:href="#linear-gradient-card-payment-53"/><linearGradient id="linear-gradient-4-card-payment-53" x1="-566.04" y1="2588.88" x2="-666.81" y2="2359.08" xlink:href="#linear-gradient-card-payment-53"/><linearGradient id="linear-gradient-5-card-payment-53" x1="-490.18" y1="2562.82" x2="-612.48" y2="2283.93" gradientTransform="translate(849 2865.64) scale(1 -1)" xlink:href="#linear-gradient-card-payment-53"/><linearGradient id="linear-gradient-6-card-payment-53" x1="-600.58" y1="2552.64" x2="-574.09" y2="2552.64" gradientTransform="translate(849 2865.64) scale(1 -1)" gradientUnits="userSpaceOnUse"><stop offset="0" stop-color="#fff" stop-opacity="0"/><stop offset=".66" stop-color="#fff"/></linearGradient><linearGradient id="linear-gradient-7-card-payment-53" x1="-586.4" y1="2560.67" x2="-559.34" y2="2560.67" xlink:href="#linear-gradient-6-card-payment-53"/><linearGradient id="linear-gradient-8-card-payment-53" x1="-571.15" y1="2568.62" x2="-545.98" y2="2568.62" xlink:href="#linear-gradient-6-card-payment-53"/><linearGradient id="linear-gradient-9-card-payment-53" x1="-557.33" y1="2576.24" x2="-532.17" y2="2576.24" xlink:href="#linear-gradient-6-card-payment-53"/><linearGradient id="linear-gradient-10-card-payment-53" x1="-545.98" y1="2566.62" x2="-518.33" y2="2566.62" xlink:href="#linear-gradient-6-card-payment-53"/><linearGradient id="linear-gradient-11-card-payment-53" x1="-532.44" y1="2556.31" x2="-505.38" y2="2556.31" xlink:href="#linear-gradient-6-card-payment-53"/><linearGradient id="linear-gradient-12-card-payment-53" x1="-519.73" y1="2546.58" x2="-493.2" y2="2546.58" xlink:href="#linear-gradient-6-card-payment-53"/><linearGradient id="linear-gradient-13-card-payment-53" x1="-533.05" y1="2538.56" x2="-507.72" y2="2538.56" xlink:href="#linear-gradient-6-card-payment-53"/><linearGradient id="linear-gradient-14-card-payment-53" x1="-547.79" y1="2530.39" x2="-521" y2="2530.39" xlink:href="#linear-gradient-6-card-payment-53"/><linearGradient id="linear-gradient-15-card-payment-53" x1="-561.44" y1="2522.16" x2="-535.68" y2="2522.16" xlink:href="#linear-gradient-6-card-payment-53"/><linearGradient id="linear-gradient-16-card-payment-53" x1="-574.19" y1="2532.02" x2="-547.79" y2="2532.02" xlink:href="#linear-gradient-6-card-payment-53"/><linearGradient id="linear-gradient-17-card-payment-53" x1="-587.8" y1="2542.4" x2="-560.5" y2="2542.4" xlink:href="#linear-gradient-6-card-payment-53"/><linearGradient id="linear-gradient-18-card-payment-53" x1="-559.34" y1="2558.76" x2="-532.44" y2="2558.76" xlink:href="#linear-gradient-6-card-payment-53"/><linearGradient id="linear-gradient-19-card-payment-53" x1="-574.09" y1="2550.63" x2="-545.78" y2="2550.63" xlink:href="#linear-gradient-6-card-payment-53"/><linearGradient id="linear-gradient-20-card-payment-53" x1="-545.78" y1="2548.36" x2="-519.73" y2="2548.36" xlink:href="#linear-gradient-6-card-payment-53"/><linearGradient id="linear-gradient-21-card-payment-53" x1="-560.5" y1="2540.22" x2="-533.05" y2="2540.22" xlink:href="#linear-gradient-6-card-payment-53"/></defs><g id="background_card-payment-53"><path class="cls-24_card-payment-53 targetColor" d="M470.5,288c-3.58,6.39-8.03,12.33-12.33,18.3-4.65,6.55-9.03,13.28-11.64,20.87-3.92,11.38-3.48,23.85-5.39,35.76-5.25,33.32-29,61.82-58.27,78.54s-63.55,22.85-97.24,23.82c-33.7.98-67.34-2.91-100.98-4.88-19.25-1.14-39.27-1.8-56.34-10.67-10.91-5.61-19.92-14.28-28.26-23.31-52.9-57.5-81.96-136.24-79.09-214.29.66-18.1,3.01-36.33,9.48-53.25,19.26-49.92,70.18-79.21,118.56-102.17,27.13-12.91,55.23-25.22,85.1-28.13,17.93-1.74,35.99,0,53.76,2.91,37.06,6.09,74.62,18.23,101.92,44.06,28.9,27.33,42.18,65.76,54.62,102.5,6.53,19.4,12.33,39.64,21.48,58,1.14,2.28,2.21,4.49,3.24,6.64,7.16,15.04,11.06,28.05,1.38,45.31Z" style="fill: rgb(26, 91, 237);"/></g><g id="hand_card-payment-53"><path class="cls-27_card-payment-53 targetColor" d="M235.54,148.74c.07-2.35,2.04-4.2,4.39-4.12.61.02,1.2.17,1.75.44l76.33,37.04s5.06,3.18,4.89,9c-.17,5.82,0,52.22,0,52.22,0,0,.61,5.25-7.72.39-8.33-4.87-76.91-44.9-76.91-44.9,0,0-3.01-1.24-3.45-8.94-.35-5.97.34-29.52.72-41.11Z" style="fill: rgb(26, 91, 237);"/><path class="cls-2_card-payment-53" d="M235.54,148.74c.07-2.35,2.04-4.2,4.39-4.12.61.02,1.2.17,1.75.44l76.33,37.04s5.06,3.18,4.89,9c-.17,5.82,0,52.22,0,52.22,0,0,.61,5.25-7.72.39-8.33-4.87-76.91-44.9-76.91-44.9,0,0-3.01-1.24-3.45-8.94-.35-5.97.34-29.52.72-41.11Z"/><path class="cls-27_card-payment-53 targetColor" d="M234.35,151.06c.08-2.36,2.06-4.2,4.41-4.12.6.02,1.19.17,1.72.43l76.34,37.07s5.06,3.18,4.88,9.01c-.18,5.83,0,52.21,0,52.21,0,0,.62,5.25-7.71.39-8.33-4.87-76.91-44.89-76.91-44.89,0,0-3.01-1.24-3.46-8.95-.35-5.96.35-29.52.72-41.15Z" style="fill: rgb(26, 91, 237);"/><polygon class="cls-17_card-payment-53" points="233.35 176.91 320.94 224 322.89 243.31 233.63 192.22 233.35 176.91"/><path class="cls-26_card-payment-53" d="M470.5,288c-3.58,6.39-8.03,12.33-12.33,18.3-7.43-2.28-16.23-3.72-21.27-9.64-37.32-43.79-56.69-43.15-90.1-57.6-23.55-10.21-50.49-16.93-71-32.42-3.35-2.5-6.76-6.46-5.25-10.34s6.39-4.51,10.43-4.48c10.98.08,21.9,1.48,32.54,4.17,1.25.45,2.61.56,3.92.3,2.3-.66,3.38-3.41,3.28-5.81-.37-7.5-6.64-10.54-13.49-13.58-9.97-4.47-20.97-10.27-30.96-14.72,9.93.57,19.13-4.88,28.93-6.7,3.9-.64,7.85-.99,11.8-1.07,9.93-.37,19.88-.72,29.84-1.07,3.35-.13,6.79-.27,10.01.7,3.79,1.18,6.99,3.72,9.97,6.35,15.18,13.28,27.39,29.57,40.97,44.49,13.58,14.92,57.24,35.66,61.38,37.77,7.12,15.06,11.02,28.07,1.34,45.33Z"/></g><g id="edc_card-payment-53"><path class="cls-3_card-payment-53 targetColor" d="M73.52,256.51c-6.15,0-13.02.19-17.33,4.59s-4.35,11.54-1.73,17.07,7.43,9.57,12.33,13.21c39.78,29.72,91.05,39.39,133.93,64.42,25.99,15.18,51.15,36.66,81.23,36.16,23.84-.39,44.91-14.76,64.35-28.58,1.74-1.23,3.6-2.67,3.97-4.74.54-3.02-2.23-5.49-4.74-7.29l-89.15-64.93c-10.76-7.83-21.61-15.73-33.75-21.18-44.15-19.92-102-8.38-149.11-8.74Z" style="fill: rgb(26, 91, 237);"/><path class="cls-27_card-payment-53 targetColor" d="M140.59,300.28s-25.9-23.39-.24-50.62l76.29-42.62c6.63-.18,13.19,1.33,19.07,4.4,9.11,5.02,117.1,89.48,125.57,97.95s10.04,25.75,10.04,25.75c0,0,.64,5.69-1.56,8.16s-75.34,42.39-78.17,41.73c-2.83-.65-12.56-4.4-12.56-4.4l-138.45-80.34Z" style="fill: rgb(26, 91, 237);"/><path class="cls-25_card-payment-53" d="M136.58,200.91c-13.28-17.57-38.72-23.03-50.8-41.43,20.91-12.13,44.87-17.75,68.43-23.2,6.46,8.93,15.84,15.18,24.58,21.92,8.74,6.74,17.33,14.53,21.03,24.92,2.3,6.45,2.53,13.43,2.74,20.27l.3,10.02c.35,1.66-.58,3.33-2.18,3.91-5.97,3.63-12.15,6.92-18.49,9.84-3.61,1.58-7.33,2.93-10.89,4.65-6.01,2.89-11.38,6.81-16.68,10.84-6.97,5.31-6-2.95-6.64-8.37-1.48-11.73-4.15-23.78-11.4-33.36Z"/><path class="cls-27_card-payment-53 targetColor" d="M140.35,249.67s74.41-42.15,76.29-42.62,14.83,1.18,24.01,8.95c9.18,7.78,59.1,47.09,59.1,47.09,0,0,1.18,4.48-.72,7.06-1.9,2.58-61.22,36.26-67.34,34.61-6.12-1.65-65.21-63.56-91.34-55.09Z" style="fill: rgb(26, 91, 237);"/><path class="cls-18_card-payment-53" d="M140.35,249.67s74.41-42.15,76.29-42.62,14.83,1.18,24.01,8.95c9.18,7.78,59.1,47.09,59.1,47.09,0,0,1.18,4.48-.72,7.06-1.9,2.58-61.22,36.26-67.34,34.61-6.12-1.65-65.21-63.56-91.34-55.09Z"/><path class="cls-16_card-payment-53" d="M140.11,254.61s2.36-8.94,26.85,9.42c24.49,18.36,131.38,104.55,131.38,104.55l-2.85,14.6s-152.59-74.88-154.94-82.88c-2.35-8-20.69-26.35-.45-45.68Z"/><polygon class="cls-22_card-payment-53" points="302.11 366.69 367.57 329.02 369.77 343.31 299.75 378.94 302.11 366.69"/><polygon class="cls-1_card-payment-53" points="329.27 318.45 315.95 326.18 303.22 316.11 316.56 308.38 329.27 318.45"/><polygon class="cls-23_card-payment-53" points="274.91 313.9 261.2 321.83 248.42 311.76 262.6 304.16 274.91 313.9"/><polygon class="cls-21_card-payment-53" points="289.66 305.37 274.91 313.9 262.6 304.16 277.85 296.03 289.66 305.37"/><polygon class="cls-19_card-payment-53" points="303.02 297.65 289.66 305.37 277.85 296.03 291.64 288.68 291.67 288.68 303.02 297.65"/><polygon class="cls-20_card-payment-53" points="316.83 289.65 303.02 297.65 291.67 288.68 305.72 281.15 316.83 289.65"/><polygon class="cls-7_card-payment-53" points="330.67 300.22 316.56 308.38 303.02 297.65 316.83 289.65 330.67 300.22"/><polygon class="cls-4_card-payment-53" points="343.62 310.16 329.27 318.45 316.56 308.38 330.67 300.22 343.62 310.16"/><polygon class="cls-5_card-payment-53" points="355.8 319.45 341.28 327.95 329.27 318.45 343.62 310.16 355.8 319.45"/><polygon class="cls-6_card-payment-53" points="341.28 327.95 328 335.71 315.95 326.18 329.27 318.45 341.28 327.95"/><polygon class="cls-14_card-payment-53" points="328 335.71 313.32 344.31 301.21 334.71 315.95 326.18 328 335.71"/><polygon class="cls-11_card-payment-53" points="313.32 344.31 299.76 352.24 287.56 342.6 301.21 334.71 313.32 344.31"/><polygon class="cls-9_card-payment-53" points="301.21 334.71 287.56 342.6 274.81 332.57 288.5 324.64 301.21 334.71"/><polygon class="cls-8_card-payment-53" points="288.5 324.64 274.81 332.57 261.2 321.83 274.91 313.9 288.5 324.64"/><polygon class="cls-13_card-payment-53" points="316.56 308.38 303.22 316.11 289.66 305.37 303.02 297.65 316.56 308.38"/><polygon class="cls-10_card-payment-53" points="303.22 316.11 288.5 324.64 274.91 313.9 289.66 305.37 303.22 316.11"/><polygon class="cls-15_card-payment-53" points="329.27 318.45 315.95 326.18 303.22 316.11 316.56 308.38 329.27 318.45"/><polygon class="cls-12_card-payment-53" points="315.95 326.18 301.21 334.71 288.5 324.64 303.22 316.11 315.95 326.18"/></g></svg>