<svg version="1.1" id="Layer_1" xmlns="http://www.w3.org/2000/svg" xmlns:xlink="http://www.w3.org/1999/xlink" x="0px" y="0px" viewBox="0 0 500 500" style="width: 188px;" xml:space="preserve" data-imageid="credit-card-1-55" imageName="Credit Card 1" class="illustrations_image">
<style type="text/css">
	.st0_credit-card-1-55{fill:#FFDAAE;}
	.st1_credit-card-1-55{opacity:0.32;fill:url(#SVGID_1_);enable-background:new    ;}
	.st2_credit-card-1-55{fill:#68E1FD;}
	.st3_credit-card-1-55{fill:#5ED18D;}
	.st4_credit-card-1-55{fill:#1E4549;}
	.st5_credit-card-1-55{opacity:0.32;fill:url(#SVGID_00000134943746484255520000000015031650212660849046_);enable-background:new    ;}
	.st6_credit-card-1-55{opacity:0.33;fill:#1E4549;enable-background:new    ;}
	.st7_credit-card-1-55{fill:#FFFFFF;}
	.st8_credit-card-1-55{fill:#F15A24;}
	.st9_credit-card-1-55{fill:#F8C401;}
	.st10_credit-card-1-55{fill:#BA3D3A;}
	.st11_credit-card-1-55{fill:#DD5E57;}
</style>
<path id="field_credit-card-1-55" class="st0_credit-card-1-55" d="M243,384.6L24.1,255.2c-7-3.9-12.9-10.3-6.1-14.6l219.7-126.6c3.3-2,8.3-3.4,11.7-1.4L479.1,246&#10;&#9;c7,4,8.2,15.4,1.2,19.4l-208.5,119C263,389.6,252,389.7,243,384.6z"/>
<g id="plant_credit-card-1-55">
	
		<linearGradient id="SVGID_1_-credit-card-1-55" gradientUnits="userSpaceOnUse" x1="382.712" y1="230.4272" x2="415.122" y2="260.9172" gradientTransform="matrix(1 0 0 -1 0 502)">
		<stop offset="0" style="stop-color:#FFDAAE;stop-opacity:0"/>
		<stop offset="0.99" style="stop-color:#552800"/>
	</linearGradient>
	<path class="st1_credit-card-1-55" d="M376.2,278.3c4.6,1.4,9.2,2.8,14,3.8c2.9,0.5,5.8,0.8,8.8,1l4.9-3.3l34-25.3l-26-8.6l-61.5,21.4&#10;&#9;&#9;C357.9,272.8,367.3,275.6,376.2,278.3z"/>
	<path class="st2_credit-card-1-55 targetColor" d="M424.3,228.3c-6.1-0.5-12.6-2.4-17.1-6.6v18.2c0,10.4,8.5,18.9,18.9,18.9l0,0l0,0c10.4,0,18.9-8.5,18.9-18.9&#10;&#9;&#9;c0,0,0,0,0,0v-18.5C438.5,224,431.1,228.9,424.3,228.3z" style="fill: rgb(104, 225, 253);"/>
	<ellipse class="st3_credit-card-1-55" cx="426" cy="221.6" rx="18.9" ry="10"/>
	<path class="st3_credit-card-1-55" d="M426,223.2c0,0-12.8-1.9-16.2-22.7C409.8,200.6,420.7,206.6,426,223.2z"/>
	<path class="st3_credit-card-1-55" d="M427.9,220.6c0,0-14.7-26.4,0-44.2C432.4,190.8,432.4,206.2,427.9,220.6z"/>
	<path class="st3_credit-card-1-55" d="M426,204c0,0-12.8-1.9-16.2-22.7C409.8,181.3,420.7,187.4,426,204z"/>
	<path class="st3_credit-card-1-55" d="M427.6,212.5c0,0-3.2-12.6,14.6-23.7C442.2,188.7,440.9,201.2,427.6,212.5z"/>
	<ellipse class="st4_credit-card-1-55" cx="426" cy="221.6" rx="18.9" ry="10"/>
	<path class="st3_credit-card-1-55" d="M426,223.2c0,0-12.8-1.9-16.2-22.7C409.8,200.6,420.7,206.6,426,223.2z"/>
	<path class="st3_credit-card-1-55" d="M427.9,220.6c0,0-14.7-26.4,0-44.2C432.4,190.8,432.4,206.2,427.9,220.6z"/>
	<path class="st3_credit-card-1-55" d="M426,204c0,0-12.8-1.9-16.2-22.7C409.8,181.3,420.7,187.4,426,204z"/>
	<path class="st3_credit-card-1-55" d="M427.6,212.5c0,0-3.2-12.6,14.6-23.7C442.2,188.7,440.9,201.2,427.6,212.5z"/>
</g>
<g id="cc_credit-card-1-55">
	
		<linearGradient id="SVGID_00000077303518807087898130000008541928806558732168_-credit-card-1-55" gradientUnits="userSpaceOnUse" x1="177.1267" y1="187.3907" x2="209.9967" y2="246.5507" gradientTransform="matrix(1 0 0 -1 0 502)">
		<stop offset="0" style="stop-color:#FFDAAE;stop-opacity:0"/>
		<stop offset="0.99" style="stop-color:#552800"/>
	</linearGradient>
	<path style="opacity:0.32;fill:url(#SVGID_00000077303518807087898130000008541928806558732168_);enable-background:new    ;" d="&#10;&#9;&#9;M70,269.9c4.6,1.4,9.2,2.8,14,3.8c2.9,0.5,5.8,0.8,8.8,1L240,367l110.1-68.5l-232.5-80.6l-73.5,40.9&#10;&#9;&#9;C51.7,264.4,61.1,267.2,70,269.9z"/>
	<path class="st2_credit-card-1-55 targetColor" d="M82.4,236.6l72.2-42.3c4.6-2.7,10.3-2.7,14.9-0.1l128.7,73c4.8,2.8,6.5,8.9,3.8,13.8c-0.9,1.6-2.2,2.9-3.8,3.8&#10;&#9;&#9;l-70.5,40.5c-6.9,3.9-15.3,3.9-22.1-0.1L82.4,252.8c-4.5-2.6-6-8.4-3.3-12.9C79.9,238.6,81,237.4,82.4,236.6z" style="fill: rgb(104, 225, 253);"/>
	<path class="st6_credit-card-1-55" d="M82.4,236.6l72.2-42.3c4.6-2.7,10.3-2.7,14.9-0.1l128.7,73c4.8,2.8,6.5,8.9,3.8,13.8c-0.9,1.6-2.2,2.9-3.8,3.8&#10;&#9;&#9;l-70.5,40.5c-6.9,3.9-15.3,3.9-22.1-0.1L82.4,252.8c-4.5-2.6-6-8.4-3.3-12.9C79.9,238.6,81,237.4,82.4,236.6z"/>
	<path class="st2_credit-card-1-55 targetColor" d="M81.8,231.9l72.2-42.3c4.6-2.7,10.3-2.7,15-0.1l128.7,73c4.8,2.8,6.5,8.9,3.8,13.8c-0.9,1.6-2.2,2.9-3.8,3.8&#10;&#9;&#9;l-70.6,40.5c-6.9,3.9-15.3,3.9-22.1-0.1L81.8,248.1c-4.5-2.6-6-8.4-3.3-12.9C79.3,233.8,80.4,232.7,81.8,231.9z" style="fill: rgb(104, 225, 253);"/>
	<path class="st7_credit-card-1-55" d="M165.5,205c-0.5,0-1-0.1-1.4-0.2l-0.6,2l-1.5-0.9l0.6-1.9l-0.3-0.2l-1.8,1.1l-1.3-0.8l4.8-3.1l2.2,1.3&#10;&#9;&#9;c0.4,0.2,0.7,0.5,0.9,0.8c0.2,0.2,0.2,0.5,0.1,0.8c-0.1,0.3-0.3,0.5-0.6,0.6C166.4,204.9,165.9,205,165.5,205z M164.7,204&#10;&#9;&#9;c0.2,0,0.4-0.1,0.6-0.2c0.2-0.1,0.3-0.2,0.3-0.4c0-0.1-0.2-0.3-0.4-0.4l-0.8-0.5l-1.2,0.8l0.8,0.5h0.1&#10;&#9;&#9;C164.2,203.9,164.4,204,164.7,204"/>
	<path class="st7_credit-card-1-55" d="M160.6,199l0.1,0.1c0.6,0.3,1,0.7,1.2,1.3c0.1,0.5,0,1-0.4,1.4l-1.4-0.8c0.1-0.2,0.1-0.4,0.1-0.6&#10;&#9;&#9;c-0.1-0.2-0.3-0.4-0.6-0.6h-0.1c-0.4-0.2-0.8-0.3-1.2-0.3c-0.5,0-0.9,0.2-1.3,0.4c-0.4,0.3-0.6,0.6-0.6,0.9s0.2,0.6,0.6,0.8&#10;&#9;&#9;l0.1,0.1c0.3,0.1,0.6,0.2,0.9,0.3c0.3,0.1,0.7,0,1-0.1l1.4,0.8c-0.7,0.3-1.4,0.4-2.2,0.3c-0.7-0.1-1.4-0.3-2.1-0.6l-0.1-0.1&#10;&#9;&#9;c-0.4-0.2-0.8-0.6-1.1-1c-0.2-0.3-0.2-0.7-0.1-1.1c0.2-0.4,0.5-0.8,0.9-1c0.5-0.3,1-0.5,1.6-0.6C158.4,198.3,159.6,198.5,160.6,199&#10;&#9;&#9;L160.6,199z"/>
	<path class="st7_credit-card-1-55" d="M189.3,216.1l0.1,0.1c0.6,0.3,1,0.7,1.2,1.3c0.1,0.5,0,1-0.4,1.4l-1.4-0.8c0.1-0.2,0.1-0.4,0-0.6&#10;&#9;&#9;c-0.1-0.2-0.3-0.4-0.6-0.6h-0.1c-0.4-0.2-0.8-0.3-1.2-0.3c-0.5,0-0.9,0.2-1.4,0.4c-0.4,0.3-0.6,0.6-0.6,0.9c0,0.3,0.2,0.7,0.6,0.8&#10;&#9;&#9;l0,0c0.3,0.2,0.6,0.3,0.9,0.3c0.3,0.1,0.7,0.1,1,0l1.4,0.8c-0.7,0.3-1.4,0.4-2.2,0.3c-0.7-0.1-1.4-0.3-2.1-0.6l-0.1-0.1&#10;&#9;&#9;c-0.4-0.2-0.8-0.6-1.1-1c-0.2-0.3-0.2-0.8-0.1-1.1c0.2-0.4,0.5-0.8,0.9-1c0.5-0.3,1-0.5,1.6-0.6C187,215.4,188.2,215.6,189.3,216.1&#10;&#9;&#9;L189.3,216.1z"/>
	<polygon class="st7_credit-card-1-55" points="180.5,211 184.8,213.5 183.9,214.1 182.4,213.2 178.6,215.7 177.2,214.9 181.1,212.4 179.6,211.6 &#9;"/>
	<polygon class="st7_credit-card-1-55" points="178.6,209.8 180,210.6 175.2,213.7 173.9,212.9 &#9;"/>
	<path class="st7_credit-card-1-55" d="M176.4,209.9c-0.2,0.4-0.5,0.8-0.9,1c-0.5,0.3-1,0.5-1.6,0.6c-0.6,0.1-1.2,0.1-1.8,0c-0.6-0.1-1.1-0.3-1.7-0.6&#10;&#9;&#9;l-0.1-0.1l-2.1-1.2l4.8-3.1l2.1,1.2c0.5,0.3,0.9,0.6,1.2,1.1C176.5,209.2,176.5,209.6,176.4,209.9z M174.2,210.1&#10;&#9;&#9;c0.4-0.3,0.6-0.6,0.6-0.9s-0.3-0.6-0.8-0.9l-0.6-0.4l-2.7,1.8l0.6,0.4l0.1,0.1c0.4,0.3,0.9,0.4,1.4,0.4&#10;&#9;&#9;C173.3,210.6,173.8,210.4,174.2,210.1"/>
	<polygon class="st7_credit-card-1-55" points="168.9,204 172.3,206 171.4,206.6 169.3,205.4 168.3,206.1 170.1,207.1 169.3,207.7 167.4,206.6 &#10;&#9;&#9;166.4,207.3 168.4,208.5 167.5,209.1 164.1,207.1 &#9;"/>
	<g>
		<path class="st7_credit-card-1-55" d="M199.8,225.4c-0.5,0-1-0.1-1.4-0.2l-0.6,2l-1.4-0.9l0.6-1.9l-0.3-0.2l-1.8,1.2l-1.3-0.8l4.8-3.1l2.2,1.3&#10;&#9;&#9;&#9;c0.4,0.2,0.7,0.5,0.9,0.8c0.2,0.2,0.2,0.5,0.1,0.7c-0.1,0.3-0.3,0.5-0.6,0.6C200.7,225.3,200.2,225.4,199.8,225.4z M199,224.5&#10;&#9;&#9;&#9;c0.2,0,0.5-0.1,0.6-0.2c0.2-0.1,0.3-0.2,0.2-0.4s-0.1-0.3-0.4-0.4l-0.8-0.5l-1.2,0.8l0.8,0.5h0.1&#10;&#9;&#9;&#9;C198.5,224.4,198.7,224.4,199,224.5"/>
		<path class="st7_credit-card-1-55" d="M206.6,227.9c-0.2,0.4-0.5,0.8-0.9,1c-0.5,0.3-1,0.5-1.6,0.6c-0.6,0.1-1.2,0.1-1.8,0&#10;&#9;&#9;&#9;c-0.6-0.1-1.1-0.3-1.7-0.6l-0.1-0.1l-2-1.2l4.8-3.1l2.1,1.2c0.5,0.3,0.9,0.6,1.2,1.1C206.7,227.1,206.7,227.5,206.6,227.9z&#10;&#9;&#9;&#9; M204.4,228.1c0.4-0.3,0.6-0.6,0.6-0.9s-0.3-0.6-0.9-0.9l-0.6-0.4l-2.7,1.8l0.6,0.4l0.1,0.1c0.4,0.3,0.9,0.4,1.4,0.4&#10;&#9;&#9;&#9;C203.5,228.5,204,228.4,204.4,228.1"/>
	</g>
	<path class="st7_credit-card-1-55" d="M195.8,220.1l-2.8,4.2l-1.4-0.8l0.5-0.8l-2-1.2l-1.2,0.4l-1.4-0.8l6.7-1.9L195.8,220.1z M191.3,221.2l1.4,0.8&#10;&#9;&#9;l1.1-1.6L191.3,221.2"/>
	<polygon class="st7_credit-card-1-55" points="127.3,217.3 129.6,218.7 123.3,222.8 122,222.1 127.4,218.6 126.3,217.9 &#9;"/>
	<polygon class="st8_credit-card-1-55" points="144.6,217.4 146.5,216.2 146.9,216.5 145,217.7 144.8,217.6 &#9;"/>
	<g>
		<polygon class="st9_credit-card-1-55" points="142.3,207.4 142.3,207.4 142.3,207.4 &#9;&#9;"/>
		<polygon class="st9_credit-card-1-55" points="151.8,212.8 143.1,207.6 154.7,210.9 &#9;&#9;"/>
		<polygon class="st8_credit-card-1-55" points="142.5,207.2 143.1,207.6 151.8,212.8 151.4,213 142.1,207.5 142.3,207.4 142.4,207.3 &#9;&#9;"/>
		<polygon class="st9_credit-card-1-55" points="155.3,211 158.9,212 154.9,214.6 152.2,213 &#9;&#9;"/>
		<polygon class="st8_credit-card-1-55" points="158.9,212 159.4,212.2 154.9,215.1 151.8,213.3 152.2,213 154.9,214.6 158.9,212 &#9;&#9;"/>
		<polygon class="st8_credit-card-1-55" points="156.1,210.2 156.3,210.4 155.3,211 152.2,213 151.8,213.3 147.3,216.2 146.8,216 151.4,213 &#10;&#9;&#9;&#9;151.8,212.8 154.7,210.9 155.9,210.1 &#9;&#9;"/>
		<polygon class="st8_credit-card-1-55" points="146.8,216 147.3,216.2 149.9,217.8 149.5,218.1 146.9,216.5 146.5,216.2 137.2,210.7 137.6,210.5 &#9;&#9;&#10;&#9;&#9;&#9;"/>
		<polygon class="st9_credit-card-1-55" points="153.2,216.2 155.3,217.5 150.2,220.8 147.9,219.4 148.1,219.5 &#9;&#9;"/>
		<polygon class="st8_credit-card-1-55" points="153.1,215.7 156.1,217.5 152.9,219.6 152.5,219.8 150.7,221 150.5,220.9 150.4,220.9 150.2,220.8 &#10;&#9;&#9;&#9;155.3,217.5 153.2,216.2 148.1,219.5 147.9,219.4 147.7,219.3 149.5,218.1 149.9,217.8 &#9;&#9;"/>
		<path class="st9_credit-card-1-55" d="M163.5,214.7c1.1,0.7,1.2,1.8,0.3,2.4l-7.2,4.7l-3.6-2.2l3.2-2.1l-3-1.8l-3.2,2.1l-2.7-1.6l4.6-3l3.1,1.8&#10;&#9;&#9;&#9;l4.4-2.9l-0.4-0.2h-0.1l-3.6-1l1-0.6l-0.2-0.1l-0.2-0.1l-1.1,0.7l-11.6-3.3l-0.6-0.3l-0.1,0.1l2.4-1.6c1.2-0.6,2.6-0.6,3.8,0h0.1&#10;&#9;&#9;&#9;L163.5,214.7z"/>
		<polygon class="st8_credit-card-1-55" points="156.5,221.8 156.4,221.9 156.1,222 152.5,219.8 152.9,219.6 &#9;&#9;"/>
		<path class="st9_credit-card-1-55" d="M152.5,219.8l3.6,2.1l0.2-0.1l-0.3,0.2c-1.2,0.6-2.6,0.6-3.8,0l-0.1-0.1l-14.9-8.8c-1.1-0.7-1.2-1.7-0.2-2.4&#10;&#9;&#9;&#9;l5-3.2l9.3,5.5l-4.6,3l-9.3-5.5l-0.4,0.2l9.3,5.5l-1.9,1.2l0.2,0.1l0.2,0.1l1.9-1.2l2.6,1.6l-1.9,1.2l0.2,0.1l2.3,1.4l0.2,0.1&#10;&#9;&#9;&#9;l0.2,0.1L152.5,219.8z"/>
	</g>
	<path class="st7_credit-card-1-55" d="M134.3,221.4l0.1,0.1c0.7,0.4,1.1,0.9,1.2,1.3s-0.2,0.9-0.8,1.2c-0.6,0.3-1.2,0.5-1.9,0.6&#10;&#9;&#9;c-0.8,0.1-1.7,0.2-2.5,0.1c-0.9,0-1.7-0.1-2.6-0.3l3.4,2.1l-0.8,0.5l-5-3l0.8-0.5c1.5,0.2,3.1,0.3,4.6,0.3c1,0.1,1.9-0.1,2.8-0.6&#10;&#9;&#9;c0.3-0.2,0.5-0.4,0.5-0.7s-0.2-0.5-0.6-0.7l-0.1-0.1c-0.4-0.2-0.8-0.3-1.2-0.3c-0.5,0-0.9,0.2-1.4,0.4l-1.1-0.7&#10;&#9;&#9;c0.7-0.4,1.6-0.7,2.4-0.6C132.9,220.8,133.6,221,134.3,221.4z"/>
	<path class="st7_credit-card-1-55" d="M146.4,233.8l1,0.6l-0.9,0.6l-1-0.6l-1.4,0.9l-1.2-0.7l1.4-0.9l-3.7-2.2l0.9-0.6l7.8-0.6l1.2,0.8L146.4,233.8z&#10;&#9;&#9; M145.3,233.1l2.9-1.9l-5.4,0.4L145.3,233.1"/>
	<path class="st7_credit-card-1-55" d="M141.3,225.4l0.2,0.1c0.4,0.2,0.7,0.5,1,0.9c0.2,0.2,0.2,0.6,0.2,0.9c-0.1,0.3-0.3,0.6-0.6,0.7&#10;&#9;&#9;c-0.4,0.3-0.9,0.4-1.4,0.4c-0.5,0-1.1-0.1-1.6-0.3H139c0.3,0.3,0.5,0.6,0.6,1.1c0,0.3-0.2,0.6-0.6,0.9c-0.6,0.4-1.2,0.5-1.9,0.5&#10;&#9;&#9;c-0.7,0-1.4-0.2-2.1-0.6l-0.1-0.1c-0.6-0.3-1.1-0.8-1.4-1.4c-0.1-0.6,0.2-1.2,0.7-1.5l1.2,0.7c-0.3,0.2-0.4,0.5-0.4,0.8&#10;&#9;&#9;c0,0.3,0.3,0.6,0.7,0.8h0.1c0.3,0.2,0.7,0.3,1.1,0.3c0.4,0,0.7-0.1,1-0.3c0.4-0.2,0.5-0.5,0.3-0.8c-0.2-0.4-0.6-0.8-1.1-1l-0.3-0.2&#10;&#9;&#9;l0.8-0.6l0.3,0.2l0.2,0.1c0.7,0.5,1.7,0.6,2.5,0.2c0.3-0.2,0.4-0.4,0.4-0.6c-0.1-0.3-0.3-0.5-0.6-0.7h-0.1c-0.7-0.4-1.6-0.4-2.4,0&#10;&#9;&#9;l-1.2-0.7c0.7-0.4,1.4-0.5,2.2-0.5C139.8,224.8,140.6,225,141.3,225.4z"/>
	<polygon class="st7_credit-card-1-55" points="174.7,245.5 179.4,248.4 178.7,248.8 170.4,250.9 169.2,250.1 177.4,248.2 173.8,246.1 &#9;"/>
	<path class="st7_credit-card-1-55" d="M169.6,245.9c0,0.5-0.3,0.9-1,1.4c-0.4,0.3-0.9,0.5-1.4,0.6c-0.5,0.1-1.1,0.1-1.6,0c-0.5-0.1-1-0.3-1.5-0.5&#10;&#9;&#9;l-0.2-0.1c-1.1-0.6-1.5-1.2-1.3-1.8c0.4-0.8,1-1.5,1.8-1.9c0.9-0.7,2-1.1,3.2-1.3c0.9-0.1,1.9,0.1,2.7,0.6c0.1,0,0.1,0.1,0.2,0.1&#10;&#9;&#9;c0.7,0.4,1.1,0.9,1.1,1.3c0,0.5-0.3,1-0.7,1.3l-1.1-0.7c0.6-0.5,0.5-1-0.2-1.4h-0.1c-0.5-0.3-1-0.4-1.6-0.4&#10;&#9;&#9;c-0.8,0.1-1.5,0.4-2.1,0.9l-0.3,0.2c0.4-0.1,0.9-0.2,1.4-0.1c0.5,0.1,1,0.2,1.4,0.5l0.1,0.1C169.2,245,169.6,245.4,169.6,245.9z&#10;&#9;&#9; M167.6,246.6c0.4-0.3,0.6-0.6,0.6-0.9s-0.3-0.6-0.7-0.8h-0.1c-0.4-0.2-0.8-0.4-1.3-0.4c-0.5,0-0.9,0.1-1.4,0.3&#10;&#9;&#9;c-0.3,0.2-0.5,0.5-0.6,0.9c0,0.3,0.2,0.6,0.8,0.9l0.1,0.1c0.4,0.2,0.8,0.3,1.3,0.4C166.7,247,167.2,246.9,167.6,246.6"/>
	<path class="st7_credit-card-1-55" d="M160.6,237.1l4.7,2.8l-0.9,0.6l-3.6-2.1l-1.9,1.2c0.4,0,0.8,0,1.1,0.1c0.4,0.1,0.7,0.2,1.1,0.4l0.1,0.1&#10;&#9;&#9;c0.4,0.2,0.8,0.5,1,0.9c0.1,0.3,0.1,0.6,0,0.9c-0.2,0.3-0.5,0.6-0.8,0.8c-0.7,0.4-1.4,0.6-2.2,0.7c-0.8,0-1.6-0.2-2.3-0.6l-0.1-0.1&#10;&#9;&#9;c-0.6-0.3-1.1-0.8-1.3-1.4c-0.1-0.5,0.1-1,0.6-1.3l1.1,0.7c-0.2,0.2-0.4,0.5-0.3,0.8c0.1,0.3,0.3,0.6,0.6,0.7h0.1&#10;&#9;&#9;c0.4,0.2,0.9,0.3,1.3,0.3c0.5,0,0.9-0.2,1.3-0.4c0.4-0.2,0.6-0.5,0.5-0.8s-0.3-0.6-0.7-0.8H160c-0.3-0.2-0.6-0.3-0.9-0.4&#10;&#9;&#9;c-0.3-0.1-0.7-0.1-1,0l-1.1-0.7L160.6,237.1z"/>
	<path class="st7_credit-card-1-55" d="M182.8,254.7c-0.1,0.4-0.3,0.7-0.6,0.9c-0.7,0.4-1.4,0.6-2.2,0.5c-0.8-0.1-1.6-0.3-2.3-0.7l-0.2-0.1&#10;&#9;&#9;c-0.6-0.3-1.2-0.8-1.4-1.5c-0.1-0.5,0.1-1,0.7-1.4c0.4-0.3,0.9-0.4,1.4-0.4c0.6,0,1.1,0,1.7,0.2c-0.3-0.2-0.4-0.6-0.4-0.9&#10;&#9;&#9;c0.1-0.3,0.3-0.6,0.6-0.8c0.3-0.2,0.7-0.3,1.1-0.4c0.5,0,1,0,1.5,0.1c0.5,0.1,1,0.3,1.4,0.6l0.2,0.1c0.4,0.3,0.8,0.6,1.1,1&#10;&#9;&#9;c0.2,0.3,0.3,0.6,0.2,0.9c-0.1,0.3-0.3,0.6-0.6,0.7c-0.4,0.2-0.8,0.4-1.2,0.4c-0.5,0-1,0-1.5-0.2&#10;&#9;&#9;C182.6,254,182.7,254.4,182.8,254.7z M181,254.9c0.4-0.2,0.5-0.5,0.4-0.8c-0.2-0.4-0.5-0.7-0.8-0.9l-0.1-0.1&#10;&#9;&#9;c-0.4-0.2-0.8-0.4-1.3-0.4c-0.4-0.1-0.9,0-1.3,0.3c-0.4,0.2-0.5,0.5-0.4,0.8c0.1,0.4,0.4,0.7,0.8,0.9l0.1,0.1&#10;&#9;&#9;c0.4,0.2,0.9,0.4,1.3,0.4C180.2,255.2,180.6,255.1,181,254.9 M181,251.3c-0.3,0.2-0.4,0.4-0.4,0.7c0.1,0.3,0.4,0.6,0.7,0.8l0.1,0.1&#10;&#9;&#9;c0.4,0.2,0.8,0.3,1.2,0.4c0.4,0,0.8-0.1,1.1-0.3c0.3-0.2,0.4-0.4,0.4-0.7c-0.1-0.3-0.4-0.6-0.7-0.8l-0.1-0.1&#10;&#9;&#9;c-0.4-0.2-0.7-0.3-1.1-0.3C181.7,251,181.3,251.1,181,251.3"/>
	<path class="st7_credit-card-1-55" d="M199.5,261.1c-0.3,0.8-0.9,1.5-1.7,1.9c-0.9,0.7-2,1.1-3.2,1.3c-0.9,0.1-1.9-0.1-2.7-0.5l-0.1-0.1&#10;&#9;&#9;c-0.7-0.4-1.1-0.9-1.1-1.4c0-0.5,0.2-1,0.7-1.3l1.1,0.7c-0.2,0.2-0.4,0.5-0.4,0.8c0.1,0.3,0.3,0.6,0.6,0.7l0.1,0&#10;&#9;&#9;c0.5,0.3,1.1,0.4,1.6,0.3c0.8-0.1,1.5-0.4,2.1-0.9l0.3-0.2c-0.5,0.2-1,0.2-1.4,0.1c-0.5-0.1-1-0.2-1.4-0.5l-0.1,0&#10;&#9;&#9;c-0.7-0.4-1.1-0.9-1.1-1.4s0.3-0.9,1-1.4c0.4-0.3,0.9-0.5,1.4-0.5c0.5-0.1,1.1-0.1,1.6,0c0.5,0.1,1.1,0.3,1.5,0.6l0.1,0.1&#10;&#9;&#9;C199.2,259.9,199.7,260.5,199.5,261.1z M197.5,261.7c0.3-0.2,0.5-0.5,0.6-0.9c0-0.3-0.2-0.6-0.8-0.9l-0.1-0.1&#10;&#9;&#9;c-0.4-0.2-0.8-0.3-1.2-0.3c-0.5,0-0.9,0.1-1.3,0.4c-0.4,0.3-0.6,0.6-0.6,0.9s0.3,0.6,0.7,0.9h0.1c0.2,0.1,0.5,0.2,0.8,0.3&#10;&#9;&#9;c0.3,0.1,0.7,0.1,1,0.1C196.9,261.9,197.3,261.8,197.5,261.7"/>
	<polygon class="st7_credit-card-1-55" points="202.4,262.1 204.7,263.5 198.4,267.6 197.2,266.8 202.5,263.3 201.5,262.7 &#9;"/>
	<path class="st7_credit-card-1-55" d="M218.3,272.5c-0.3,0.8-0.9,1.5-1.7,1.9c-0.9,0.6-1.9,1-3,1.2c-1,0.1-1.9-0.1-2.8-0.6l-0.2-0.1&#10;&#9;&#9;c-1-0.6-1.4-1.2-1.2-1.8c0.3-0.8,1-1.5,1.8-1.9c0.9-0.6,1.9-1,3-1.2c1-0.1,1.9,0.1,2.8,0.6l0.1,0.1&#10;&#9;&#9;C218.1,271.3,218.5,271.9,218.3,272.5z M215.4,273.7c0.5-0.3,1-0.7,1.4-1.3c0.2-0.4,0-0.7-0.6-1.1h-0.1c-0.5-0.3-1.1-0.4-1.7-0.3&#10;&#9;&#9;c-0.7,0.2-1.4,0.5-2,0.9c-0.6,0.3-1,0.7-1.4,1.3c-0.2,0.4,0,0.7,0.6,1.1l0.1,0c0.5,0.3,1.1,0.4,1.7,0.3&#10;&#9;&#9;C214.1,274.5,214.8,274.2,215.4,273.7"/>
	<path class="st7_credit-card-1-55" d="M210.9,268.1c-0.3,0.8-0.9,1.5-1.7,1.9c-0.9,0.6-1.9,1-3,1.2c-1,0.1-1.9-0.1-2.7-0.6l-0.2-0.1&#10;&#9;&#9;c-1-0.6-1.4-1.2-1.2-1.8c0.3-0.8,1-1.5,1.8-1.9c0.9-0.6,1.9-1,3-1.2c1-0.1,1.9,0.1,2.8,0.6l0.1,0.1&#10;&#9;&#9;C210.7,266.9,211.1,267.5,210.9,268.1z M208,269.3c0.5-0.3,1-0.7,1.4-1.2c0.2-0.4,0-0.7-0.6-1.1l-0.1,0c-0.5-0.3-1.1-0.4-1.7-0.3&#10;&#9;&#9;c-0.7,0.2-1.4,0.5-2,0.9c-0.6,0.3-1,0.7-1.4,1.3c-0.2,0.4,0,0.7,0.6,1.1l0.1,0c0.5,0.3,1.1,0.4,1.7,0.3&#10;&#9;&#9;C206.7,270,207.4,269.7,208,269.3"/>
	<polygon class="st7_credit-card-1-55" points="124.5,232.4 128.4,234.7 127.7,235.2 120.9,236 123.8,237.7 123.2,238.2 119.1,235.8 119.8,235.4 &#10;&#9;&#9;126.6,234.5 123.8,232.9 &#9;"/>
	<polygon class="st7_credit-card-1-55" points="144.4,244.3 148.8,246.9 148.1,247.3 146.4,246.3 141.8,249.3 140.8,248.7 145.4,245.7 143.7,244.7 &#9;&#10;&#9;&#9;"/>
	<path class="st7_credit-card-1-55" d="M136.2,243.1c0,0.3-0.2,0.6-0.5,0.8c-0.5,0.3-1,0.4-1.5,0.4c-0.6,0-1.2-0.2-1.7-0.5l-0.1-0.1l-2.4-1.4l5.3-3.4&#10;&#9;&#9;l2.4,1.4c0.6,0.4,0.9,0.7,1,1.1s-0.1,0.7-0.5,0.9c-0.3,0.2-0.7,0.3-1.1,0.4c-0.4,0-0.8-0.1-1.2-0.2&#10;&#9;&#9;C136,242.5,136.2,242.8,136.2,243.1z M134.8,243.2c0.3-0.2,0.4-0.4,0.3-0.6c-0.1-0.3-0.4-0.5-0.6-0.6l-1.2-0.7l-1.7,1.1l1.2,0.7&#10;&#9;&#9;l0.1,0.1c0.3,0.2,0.6,0.3,1,0.3C134.2,243.5,134.6,243.4,134.8,243.2 M135.5,239.8l-1.6,1l1.2,0.7l0,0c0.3,0.2,0.6,0.3,0.9,0.3&#10;&#9;&#9;c0.3,0,0.6-0.1,0.9-0.2c0.2-0.2,0.3-0.3,0.3-0.5s-0.2-0.4-0.6-0.6L135.5,239.8"/>
	<path class="st7_credit-card-1-55" d="M132.2,237.1l-3,4.7l-1.1-0.6l0.7-1l-2.5-1.5l-1.6,0.5l-1-0.6l7.4-2L132.2,237.1z M127.2,238.4l2,1.2l1.5-2.2&#10;&#9;&#9;L127.2,238.4"/>
	<polygon class="st7_credit-card-1-55" points="122.5,231.2 123.5,231.8 118.2,235.2 117.2,234.6 &#9;"/>
	<polygon class="st7_credit-card-1-55" points="118.7,228.9 119.6,229.5 115,232.5 117.1,233.8 116.5,234.2 113.4,232.4 &#9;"/>
	<polygon class="st7_credit-card-1-55" points="114.3,226.3 117.7,228.4 117,228.8 114.6,227.4 113,228.4 115.2,229.7 114.5,230.1 112.3,228.8 &#10;&#9;&#9;110.7,229.9 113.2,231.4 112.5,231.8 109,229.8 &#9;"/>
	<polygon class="st7_credit-card-1-55" points="140.5,241.9 143.9,244 143.2,244.4 140.8,243 139.2,244 141.4,245.3 140.7,245.8 138.5,244.4 &#10;&#9;&#9;136.9,245.5 139.4,247 138.7,247.4 135.2,245.4 &#9;"/>
	<polygon class="st7_credit-card-1-55" points="149.5,247.3 150.5,247.9 148.2,249.3 151.1,251 153.3,249.6 154.3,250.1 149,253.6 148,253 &#10;&#9;&#9;150.4,251.4 147.6,249.8 145.2,251.3 144.2,250.7 &#9;"/>
	<polygon class="st7_credit-card-1-55" points="190.1,271.5 192,272.6 186.8,276 185.7,275.4 190.2,272.5 189.3,272 &#9;"/>
	<path class="st7_credit-card-1-55" d="M195.1,274.3l0.1,0.1c0.6,0.4,0.9,0.7,1,1.1s-0.1,0.7-0.6,1c-0.5,0.3-1,0.5-1.6,0.5c-0.7,0.1-1.4,0.1-2.1,0.1&#10;&#9;&#9;c-0.7,0-1.4-0.1-2.1-0.2l2.9,1.7l-0.7,0.5l-4.2-2.5l0.6-0.4c1.3,0.2,2.6,0.3,3.8,0.3c0.8,0,1.6-0.1,2.3-0.5&#10;&#9;&#9;c0.3-0.2,0.4-0.4,0.4-0.5s-0.1-0.4-0.5-0.6h-0.1c-0.3-0.2-0.6-0.3-1-0.2c-0.4,0-0.8,0.2-1.1,0.4l-1-0.6c0.6-0.4,1.3-0.5,2-0.5&#10;&#9;&#9;C193.9,273.8,194.5,274,195.1,274.3z"/>
	<path class="st7_credit-card-1-55" d="M206.4,281l3.9,2.3l-0.8,0.5l-3-1.8l-1.6,1c0.3,0,0.7,0,1,0.1c0.3,0.1,0.6,0.2,0.9,0.3l0.1,0.1&#10;&#9;&#9;c0.3,0.2,0.6,0.4,0.8,0.8c0.1,0.2,0.1,0.5,0,0.8c-0.2,0.3-0.4,0.5-0.7,0.7c-0.6,0.4-1.2,0.6-1.9,0.5c-0.7,0-1.3-0.2-1.9-0.5&#10;&#9;&#9;l-0.1-0.1c-0.5-0.2-0.9-0.7-1.1-1.2c-0.1-0.5,0.1-0.9,0.5-1.1l1,0.6c-0.2,0.1-0.3,0.4-0.2,0.6c0.1,0.3,0.3,0.5,0.5,0.6h0.1&#10;&#9;&#9;c0.3,0.2,0.7,0.3,1.1,0.3c0.4,0,0.8-0.1,1.1-0.4c0.3-0.2,0.5-0.4,0.4-0.7s-0.2-0.5-0.6-0.7l0,0c-0.2-0.1-0.5-0.2-0.8-0.3&#10;&#9;&#9;c-0.3-0.1-0.5-0.1-0.8,0l-0.9-0.6L206.4,281z"/>
	<path class="st7_credit-card-1-55" d="M203.2,279.2l0.1,0.1c0.5,0.2,0.8,0.6,1,1.1c0.1,0.4-0.1,0.7-0.6,1c-0.5,0.3-1,0.5-1.6,0.5&#10;&#9;&#9;c-0.7,0.1-1.4,0.1-2.1,0.1c-0.7,0-1.4-0.1-2.1-0.2l2.9,1.7l-0.7,0.5l-4.2-2.5l0.6-0.4c1.3,0.2,2.5,0.3,3.8,0.3&#10;&#9;&#9;c0.8,0.1,1.6-0.1,2.3-0.5c0.2-0.1,0.4-0.3,0.4-0.5c0-0.2-0.1-0.4-0.5-0.6h-0.1c-0.3-0.2-0.6-0.3-1-0.2c-0.4,0-0.8,0.2-1.1,0.4&#10;&#9;&#9;l-1-0.6c0.6-0.4,1.3-0.5,2-0.5C202,278.7,202.6,278.8,203.2,279.2z"/>
	<polygon class="st7_credit-card-1-55" points="201.5,276.1 202.5,276.6 191.8,280.7 190.9,280.1 &#9;"/>
	<polygon class="st7_credit-card-1-55" points="281.8,271.9 282.9,272.5 280.8,273.9 284.9,273.7 286.2,274.5 281.6,274.6 281.5,277.5 280.2,276.8 &#10;&#9;&#9;280.3,274.2 278.1,275.6 277.1,274.9 &#9;"/>
	<polygon class="st7_credit-card-1-55" points="276.2,268.5 277.3,269.2 276.5,272.7 279.8,270.6 280.8,271.3 276.1,274.3 275,273.7 275.8,270.2 &#10;&#9;&#9;272.6,272.2 271.5,271.6 &#9;"/>
	<path class="st7_credit-card-1-55" d="M273.6,267l-2.7,4.2l-1.1-0.7l0.6-0.8l-2.2-1.3l-1.3,0.4l-1.1-0.7l6.7-1.9L273.6,267z M269.2,268.1l1.6,1&#10;&#9;&#9;l1.2-1.8L269.2,268.1"/>
	<path class="st7_credit-card-1-55" d="M267.1,266.4c0,0.3-0.2,0.5-0.5,0.7c-0.4,0.3-0.9,0.4-1.4,0.3c-0.5,0-1.1-0.2-1.5-0.5l-0.1-0.1l-2.3-1.4&#10;&#9;&#9;l4.8-3.1l2.3,1.4c0.5,0.3,0.9,0.6,1,1s-0.1,0.6-0.5,0.8c-0.3,0.2-0.6,0.3-1,0.3c-0.4,0-0.7,0-1.1-0.2&#10;&#9;&#9;C266.9,265.9,267.1,266.2,267.1,266.4z M265.6,266.4c0.2-0.1,0.3-0.3,0.3-0.5c-0.1-0.2-0.3-0.4-0.5-0.5l-1-0.6l-1.3,0.8l1,0.6h0&#10;&#9;&#9;c0.2,0.1,0.5,0.2,0.8,0.3C265.2,266.5,265.4,266.5,265.6,266.4 M266.3,263.5l-1.2,0.8l1,0.6h0.1c0.2,0.1,0.5,0.2,0.7,0.2&#10;&#9;&#9;c0.2,0,0.5,0,0.7-0.2c0.2-0.1,0.3-0.3,0.2-0.4s-0.2-0.3-0.5-0.5L266.3,263.5"/>
	<ellipse class="st8_credit-card-1-55" cx="206.8" cy="299.8" rx="10.3" ry="6.4"/>
	<ellipse class="st9_credit-card-1-55" cx="216.1" cy="304.9" rx="10.3" ry="6.4"/>
	<path class="st10_credit-card-1-55" d="M158.8,235.9l72.2-42.3c4.6-2.7,10.3-2.7,15-0.1l128.7,73c4.8,2.8,6.5,8.9,3.8,13.8c-0.9,1.6-2.2,2.9-3.8,3.8&#10;&#9;&#9;l-70.6,40.5c-6.9,3.9-15.3,3.9-22.1-0.1l-123.2-72.3c-4.5-2.6-6-8.4-3.3-12.8C156.3,237.8,157.4,236.7,158.8,235.9z"/>
	<path class="st11_credit-card-1-55" d="M158.8,231.9l72.2-42.3c4.6-2.7,10.3-2.7,15-0.1l128.7,73c4.8,2.8,6.5,8.9,3.8,13.7c-0.9,1.6-2.2,2.9-3.8,3.8&#10;&#9;&#9;l-70.6,40.5c-6.9,3.9-15.3,3.9-22.1-0.1l-123.2-72.3c-4.5-2.6-6-8.4-3.3-12.8C156.3,233.9,157.4,232.7,158.8,231.9z"/>
	<polygon class="st7_credit-card-1-55" points="252.1,213.4 253.4,214.2 248.7,217.3 247.4,216.5 &#9;"/>
	<polygon class="st7_credit-card-1-55" points="254,214.6 258.2,217.1 257.3,217.7 255.9,216.8 252,219.3 250.7,218.5 254.5,216 253.1,215.1 &#9;"/>
	<path class="st7_credit-card-1-55" d="M219.9,237.4l1,0.6l-0.9,0.6l-1-0.6l-1.4,0.9l-1.2-0.7l1.4-0.9l-3.7-2.2l0.9-0.6l7.8-0.6l1.2,0.7L219.9,237.4z&#10;&#9;&#9; M218.8,236.7l2.9-1.9l-5.4,0.4L218.8,236.7"/>
	<path class="st7_credit-card-1-55" d="M214.7,229l0.1,0.1c0.4,0.2,0.7,0.5,1,0.9c0.2,0.2,0.2,0.6,0.2,0.9c-0.1,0.3-0.3,0.6-0.6,0.7&#10;&#9;&#9;c-0.4,0.3-0.9,0.4-1.4,0.4c-0.5,0-1.1-0.1-1.6-0.3l0,0c0.3,0.3,0.5,0.6,0.6,1.1c0,0.3-0.2,0.6-0.6,0.9c-0.6,0.4-1.2,0.5-1.9,0.5&#10;&#9;&#9;c-0.7,0-1.4-0.2-2.1-0.6l-0.1-0.1c-0.6-0.3-1.1-0.8-1.4-1.4c-0.1-0.5,0.1-1,0.7-1.5l1.2,0.7c-0.3,0.2-0.4,0.5-0.4,0.8&#10;&#9;&#9;c0.1,0.4,0.4,0.7,0.7,0.8h0.1c0.3,0.2,0.7,0.3,1.1,0.3c0.4,0,0.7-0.1,1-0.3c0.4-0.2,0.5-0.5,0.3-0.8c-0.2-0.4-0.6-0.8-1.1-1&#10;&#9;&#9;l-0.3-0.2l0.8-0.6l0.3,0.2l0.2,0.1c0.7,0.5,1.7,0.6,2.4,0.2c0.3-0.2,0.4-0.4,0.4-0.6c-0.1-0.3-0.3-0.5-0.6-0.7h-0.1&#10;&#9;&#9;c-0.3-0.2-0.7-0.3-1.1-0.3c-0.4,0-0.9,0.1-1.2,0.3l-1.1-0.7c0.7-0.4,1.4-0.5,2.2-0.5C213.3,228.4,214,228.6,214.7,229z"/>
	<path class="st7_credit-card-1-55" d="M207.8,225l0.1,0.1c0.7,0.4,1.1,0.9,1.2,1.3s-0.2,0.9-0.7,1.2c-0.6,0.3-1.2,0.6-1.9,0.6&#10;&#9;&#9;c-0.8,0.1-1.7,0.2-2.5,0.1c-0.9,0-1.7-0.1-2.6-0.3l3.4,2.1l-0.8,0.5l-5-3l0.8-0.5c1.5,0.2,3.1,0.3,4.6,0.3c1,0.1,1.9-0.1,2.8-0.6&#10;&#9;&#9;c0.3-0.2,0.5-0.4,0.5-0.7s-0.2-0.5-0.6-0.7l-0.1-0.1c-0.4-0.2-0.8-0.3-1.2-0.3c-0.5,0-1,0.2-1.4,0.4l-1.1-0.7&#10;&#9;&#9;c0.7-0.4,1.6-0.7,2.4-0.6C206.3,224.4,207.1,224.6,207.8,225z"/>
	<g>
		<path class="st7_credit-card-1-55" d="M239,208.6c-0.5,0-1-0.1-1.4-0.2l-0.6,2l-1.4-0.9l0.6-1.9l-0.3-0.2l-1.8,1.1l-1.3-0.8l4.8-3.1l2.3,1.3&#10;&#9;&#9;&#9;c0.4,0.2,0.7,0.5,0.9,0.8c0.2,0.2,0.2,0.5,0.1,0.8c-0.1,0.3-0.3,0.5-0.6,0.6C239.8,208.4,239.4,208.5,239,208.6z M238.8,207.4&#10;&#9;&#9;&#9;c0.2-0.1,0.3-0.2,0.2-0.4s-0.1-0.3-0.4-0.4l-0.8-0.5l-1.2,0.8l0.8,0.5h0.1c0.2,0.1,0.4,0.2,0.7,0.2&#10;&#9;&#9;&#9;C238.4,207.6,238.6,207.6,238.8,207.4"/>
		<polygon class="st7_credit-card-1-55" points="242.3,207.6 245.7,209.6 244.8,210.2 242.8,209 241.7,209.6 243.6,210.7 242.7,211.3 240.9,210.2 &#10;&#9;&#9;&#9;239.8,210.9 241.9,212.1 241,212.7 237.6,210.7 &#9;&#9;"/>
		<path class="st7_credit-card-1-55" d="M249.9,213.5c-0.2,0.4-0.5,0.8-0.9,1c-0.5,0.3-1,0.5-1.6,0.6c-0.6,0.1-1.2,0.1-1.8,0&#10;&#9;&#9;&#9;c-0.6-0.1-1.1-0.3-1.7-0.6l-0.1-0.1l-2.1-1.2l4.8-3.1l2.1,1.2c0.5,0.3,0.9,0.6,1.2,1.1C250,212.7,250,213.1,249.9,213.5z&#10;&#9;&#9;&#9; M247.7,213.7c0.4-0.3,0.6-0.6,0.6-0.9c-0.1-0.3-0.3-0.6-0.8-0.9l-0.6-0.4l-2.7,1.8l0.6,0.4l0.1,0.1c0.4,0.3,0.9,0.4,1.4,0.4&#10;&#9;&#9;&#9;C246.7,214.1,247.2,214,247.7,213.7"/>
		<polygon class="st9_credit-card-1-55" points="225.2,216.4 216.5,211.2 228.2,214.4 &#9;&#9;"/>
		<polygon class="st8_credit-card-1-55" points="216,210.8 216.5,211.2 225.2,216.4 224.9,216.6 215.6,211.1 215.9,210.9 &#9;&#9;"/>
		<polygon class="st9_credit-card-1-55" points="228.8,214.6 232.3,215.6 228.3,218.2 225.7,216.6 &#9;&#9;"/>
		<polygon class="st8_credit-card-1-55" points="232.4,215.6 232.8,215.8 228.4,218.7 225.3,216.9 225.7,216.6 228.3,218.2 232.3,215.6 &#9;&#9;"/>
		<polygon class="st8_credit-card-1-55" points="229.5,213.8 229.7,214 228.8,214.6 225.7,216.6 225.3,216.9 220.7,219.8 220.3,219.6 224.9,216.6 &#10;&#9;&#9;&#9;225.2,216.4 228.2,214.4 229.3,213.7 &#9;&#9;"/>
		<polygon class="st8_credit-card-1-55" points="220.3,219.6 220.7,219.8 223.4,221.4 223,221.6 220.3,220.1 219.9,219.8 210.7,214.3 211,214.1 &#9;&#9;"/>
		<polygon class="st8_credit-card-1-55" points="218.1,221 219.9,219.8 220.3,220.1 218.5,221.3 218.3,221.1 &#9;&#9;"/>
		<polygon class="st8_credit-card-1-55" points="226.6,219.3 229.6,221.1 226.4,223.2 226,223.4 224.1,224.6 223.9,224.5 223.9,224.5 223.7,224.4 &#10;&#9;&#9;&#9;228.8,221.1 226.6,219.8 221.6,223.1 221.4,223 221.1,222.9 223,221.6 223.4,221.4 &#9;&#9;"/>
		<polygon class="st9_credit-card-1-55" points="226.6,219.8 228.8,221.1 223.7,224.4 221.4,223 221.6,223.1 &#9;&#9;"/>
		<polygon class="st8_credit-card-1-55" points="226.4,223.2 230,225.3 229.8,225.5 229.6,225.6 226,223.4 &#9;&#9;"/>
		<path class="st9_credit-card-1-55" d="M236.9,218.3c1.1,0.7,1.2,1.7,0.2,2.4l-7.6,5c-1.2,0.6-2.6,0.6-3.8,0h-0.1l-14.9-8.9&#10;&#9;&#9;&#9;c-1.1-0.7-1.2-1.7-0.2-2.4l5.3-3.4l-0.3,0.2l9.3,5.5l-4.6,3l-9.3-5.6l-0.4,0.2l9.3,5.5L218,221l0.2,0.1l0.2,0.1l1.9-1.2l2.7,1.6&#10;&#9;&#9;&#9;l-1.9,1.2l0.2,0.1l2.3,1.4l0.2,0.1l0.2,0.1l1.9-1.2l3.6,2.1l0.2-0.1l0.2-0.1l-3.6-2.1l3.2-2.1l-3-1.8l-3.2,2.1l-2.7-1.6l4.6-3&#10;&#9;&#9;&#9;l3.1,1.8l4.4-2.9l-0.4-0.2h-0.1l-3.6-1l1-0.6l-0.2-0.1l-0.2-0.1l-1.1,0.7l-11.6-3.3l-0.6-0.3l2.3-1.5c1.2-0.6,2.6-0.6,3.8,0h0.1&#10;&#9;&#9;&#9;l7.4,4.4L236.9,218.3z"/>
	</g>
	<path class="st7_credit-card-1-55" d="M234,202.6l0.1,0.1c0.6,0.3,1,0.8,1.2,1.3c0.1,0.5,0,1-0.4,1.4l-1.4-0.8c0.1-0.2,0.1-0.4,0.1-0.6&#10;&#9;&#9;c-0.1-0.2-0.3-0.4-0.6-0.6H233c-0.4-0.2-0.8-0.3-1.2-0.3c-0.5,0-0.9,0.2-1.3,0.4c-0.4,0.3-0.6,0.6-0.6,0.9c0,0.4,0.2,0.7,0.6,0.8&#10;&#9;&#9;l0,0c0.3,0.2,0.6,0.3,0.9,0.3c0.3,0.1,0.7,0.1,1,0l1.4,0.8c-0.7,0.3-1.4,0.4-2.2,0.3c-0.7-0.1-1.4-0.3-2.1-0.6l-0.1-0.1&#10;&#9;&#9;c-0.4-0.2-0.8-0.6-1.1-1c-0.2-0.3-0.2-0.7-0.1-1.1c0.2-0.4,0.5-0.8,0.9-1c0.5-0.3,1-0.5,1.6-0.6c0.6-0.1,1.2-0.1,1.8,0&#10;&#9;&#9;C233,202.2,233.5,202.4,234,202.6z"/>
	<path class="st7_credit-card-1-55" d="M269.2,223.7l-2.7,4.2l-1.4-0.8l0.5-0.8l-2-1.2l-1.2,0.4l-1.4-0.8l6.7-1.9L269.2,223.7z M264.8,224.7l1.4,0.8&#10;&#9;&#9;l1.1-1.6L264.8,224.7"/>
	<path class="st7_credit-card-1-55" d="M262.7,219.7c0,0,0.1,0,0.1,0.1c0.6,0.3,1,0.7,1.2,1.3c0.1,0.5,0,1-0.4,1.4l-1.4-0.8c0.1-0.2,0.1-0.4,0-0.6&#10;&#9;&#9;c-0.1-0.2-0.3-0.4-0.6-0.6h-0.1c-0.4-0.2-0.8-0.3-1.2-0.3c-0.5,0-0.9,0.2-1.3,0.4c-0.3,0.2-0.6,0.5-0.6,0.9c0,0.3,0.3,0.6,0.6,0.8&#10;&#9;&#9;l0,0c0.3,0.2,0.6,0.3,0.9,0.3c0.3,0.1,0.7,0.1,1,0l1.4,0.8c-0.7,0.3-1.4,0.4-2.2,0.3c-0.7-0.1-1.4-0.3-2.1-0.6l-0.1-0.1&#10;&#9;&#9;c-0.4-0.2-0.8-0.6-1.1-1c-0.2-0.3-0.2-0.7-0.1-1.1c0.2-0.4,0.5-0.8,0.9-1c0.5-0.3,1-0.5,1.6-0.6C260.4,219,261.6,219.2,262.7,219.7&#10;&#9;&#9;L262.7,219.7z"/>
	<path class="st7_credit-card-1-55" d="M273.3,229c-0.5,0-1-0.1-1.4-0.2l-0.6,2l-1.5-0.9l0.6-1.9l-0.3-0.2l-1.8,1.1l-1.3-0.8l4.8-3.1l2.2,1.3&#10;&#9;&#9;c0.4,0.2,0.7,0.5,0.9,0.8c0.2,0.2,0.2,0.5,0.1,0.8c-0.1,0.3-0.3,0.5-0.6,0.6C274.1,228.9,273.7,229,273.3,229z M272.4,228.1&#10;&#9;&#9;c0.2,0,0.4-0.1,0.6-0.2c0.2-0.1,0.3-0.2,0.2-0.4s-0.1-0.3-0.4-0.4l-0.8-0.5l-1.2,0.8l0.8,0.5l0,0&#10;&#9;&#9;C271.9,227.9,272.2,228,272.4,228.1"/>
	<path class="st7_credit-card-1-55" d="M280.1,231.5c-0.2,0.4-0.5,0.8-0.9,1c-0.5,0.3-1,0.5-1.6,0.6c-0.6,0.1-1.2,0.1-1.8,0c-0.6-0.1-1.1-0.3-1.6-0.6&#10;&#9;&#9;l-0.2-0.1l-2-1.2l4.7-3.1l2.1,1.2c0.5,0.3,0.9,0.6,1.2,1.1C280.1,230.7,280.2,231.1,280.1,231.5z M277.8,231.7&#10;&#9;&#9;c0.4-0.3,0.6-0.6,0.6-0.9c-0.1-0.4-0.4-0.8-0.9-0.9l-0.6-0.4l-2.7,1.8l0.6,0.4l0.1,0.1c0.4,0.3,0.9,0.4,1.5,0.4&#10;&#9;&#9;C276.9,232.1,277.4,232,277.8,231.7"/>
	<polygon class="st7_credit-card-1-55" points="200.7,220.9 203.1,222.3 196.7,226.4 195.5,225.7 200.9,222.2 199.8,221.5 &#9;"/>
	<path class="st7_credit-card-1-55" d="M234.1,240.7l4.7,2.8l-0.9,0.6l-3.6-2.1l-1.9,1.2c0.4,0,0.8,0,1.1,0.1c0.3,0.1,0.7,0.2,1,0.4l0.1,0.1&#10;&#9;&#9;c0.4,0.2,0.8,0.5,1,0.9c0.2,0.3,0.2,0.6,0,0.9c-0.2,0.3-0.5,0.6-0.8,0.8c-0.7,0.4-1.4,0.7-2.2,0.7c-0.8,0-1.6-0.2-2.3-0.6l-0.1-0.1&#10;&#9;&#9;c-0.6-0.3-1.1-0.8-1.3-1.4c-0.1-0.5,0.2-1.1,0.6-1.4l1.1,0.7c-0.2,0.2-0.4,0.5-0.3,0.8c0.1,0.3,0.3,0.6,0.6,0.7h0.1&#10;&#9;&#9;c0.4,0.2,0.9,0.3,1.3,0.3c0.5,0,0.9-0.2,1.3-0.4c0.4-0.2,0.6-0.5,0.5-0.8s-0.3-0.6-0.7-0.8h-0.1c-0.3-0.2-0.6-0.3-0.9-0.4&#10;&#9;&#9;c-0.3-0.1-0.7-0.1-1,0l-1.1-0.7L234.1,240.7z"/>
	<path class="st7_credit-card-1-55" d="M243.1,249.5c0,0.5-0.3,0.9-1,1.4c-0.4,0.3-0.9,0.5-1.4,0.5c-0.5,0.1-1.1,0.1-1.6,0c-0.5-0.1-1-0.3-1.5-0.5&#10;&#9;&#9;l-0.1-0.1c-1-0.6-1.5-1.2-1.3-1.8c0.4-0.8,1-1.5,1.8-1.9c0.9-0.7,2-1.1,3.2-1.3c1-0.1,1.9,0.1,2.8,0.6l0.1,0.1&#10;&#9;&#9;c0.7,0.4,1.1,0.9,1.1,1.3c0,0.5-0.3,1-0.7,1.3l-1.1-0.7c0.6-0.5,0.5-1-0.2-1.4H243c-0.5-0.3-1.1-0.4-1.6-0.3&#10;&#9;&#9;c-0.7,0.1-1.5,0.4-2.1,0.9l-0.3,0.2c0.5-0.2,1-0.2,1.4-0.1c0.5,0.1,1,0.2,1.4,0.5l0.1,0.1C242.7,248.5,243,249,243.1,249.5z&#10;&#9;&#9; M241,250.2c0.4-0.3,0.6-0.6,0.6-0.9s-0.3-0.6-0.7-0.8h-0.1c-0.4-0.2-0.8-0.4-1.3-0.4c-0.5-0.1-0.9,0.1-1.4,0.3&#10;&#9;&#9;c-0.3,0.2-0.6,0.5-0.6,0.9c0,0.3,0.2,0.6,0.8,0.9l0.1,0.1c0.4,0.2,0.8,0.3,1.3,0.4C240.2,250.6,240.6,250.5,241,250.2"/>
	<path class="st7_credit-card-1-55" d="M256.2,258.3c-0.1,0.4-0.3,0.7-0.6,0.9c-0.7,0.4-1.4,0.6-2.2,0.5c-0.8-0.1-1.6-0.3-2.3-0.7l-0.2-0.1&#10;&#9;&#9;c-0.6-0.3-1.2-0.8-1.4-1.5c-0.1-0.5,0.1-1,0.7-1.4c0.4-0.3,0.9-0.4,1.4-0.4c0.6,0,1.1,0,1.7,0.2c-0.3-0.2-0.4-0.6-0.4-0.9&#10;&#9;&#9;c0.1-0.3,0.3-0.6,0.6-0.8c0.3-0.2,0.7-0.3,1.1-0.4c0.5,0,1,0,1.5,0.1c0.5,0.1,1,0.3,1.4,0.6l0.2,0.1c0.4,0.2,0.8,0.6,1.1,1&#10;&#9;&#9;c0.2,0.3,0.3,0.6,0.2,0.9c-0.1,0.3-0.3,0.6-0.6,0.7c-0.4,0.2-0.8,0.4-1.2,0.4c-0.5,0-1,0-1.5-0.2&#10;&#9;&#9;C256,257.6,256.2,257.9,256.2,258.3z M254.5,258.5c0.4-0.2,0.5-0.5,0.4-0.8c-0.2-0.4-0.5-0.7-0.8-0.9l-0.1-0.1&#10;&#9;&#9;c-0.4-0.2-0.8-0.4-1.3-0.4c-0.4-0.1-0.9,0-1.3,0.3c-0.4,0.2-0.5,0.5-0.4,0.8c0.1,0.4,0.4,0.7,0.8,0.9l0.1,0.1&#10;&#9;&#9;c0.4,0.2,0.9,0.4,1.3,0.4C253.6,258.8,254.1,258.7,254.5,258.5 M254.4,254.9c-0.3,0.2-0.4,0.4-0.4,0.7c0.1,0.3,0.4,0.6,0.7,0.8&#10;&#9;&#9;l0.1,0c0.4,0.2,0.8,0.3,1.2,0.4c0.4,0,0.8-0.1,1.1-0.3c0.3-0.2,0.5-0.5,0.4-0.7c-0.1-0.3-0.4-0.6-0.7-0.8c0,0-0.1,0-0.1-0.1&#10;&#9;&#9;c-0.4-0.2-0.7-0.3-1.1-0.3C255.1,254.6,254.7,254.7,254.4,254.9"/>
	<polygon class="st7_credit-card-1-55" points="248.1,249.1 252.9,251.9 252.1,252.4 243.8,254.5 242.6,253.7 250.8,251.8 247.2,249.7 &#9;"/>
	<path class="st7_credit-card-1-55" d="M284.4,271.7c-0.3,0.8-1,1.5-1.7,1.9c-0.9,0.6-1.9,1-3,1.2c-1,0.1-1.9-0.1-2.7-0.6l-0.2-0.1&#10;&#9;&#9;c-1-0.6-1.4-1.1-1.2-1.8c0.3-0.8,1-1.5,1.8-1.9c0.9-0.6,1.9-1,3-1.2c1-0.1,1.9,0.1,2.8,0.6l0.1,0.1&#10;&#9;&#9;C284.2,270.5,284.5,271.1,284.4,271.7z M281.5,272.9c0.5-0.3,1-0.7,1.3-1.3c0.2-0.4,0-0.7-0.6-1.1l-0.1,0c-0.5-0.3-1.1-0.4-1.7-0.3&#10;&#9;&#9;c-0.7,0.2-1.4,0.5-2,0.9c-0.6,0.3-1,0.7-1.4,1.3c-0.2,0.4,0,0.7,0.6,1.1h0.1c0.5,0.3,1.1,0.4,1.7,0.3&#10;&#9;&#9;C280.2,273.6,280.9,273.3,281.5,272.9"/>
	<polygon class="st7_credit-card-1-55" points="275.9,265.7 278.2,267 271.9,271.1 270.6,270.4 276,266.9 274.9,266.3 &#9;"/>
	<path class="st7_credit-card-1-55" d="M273,264.7c-0.3,0.8-1,1.5-1.7,1.9c-0.9,0.7-2,1.1-3.1,1.3c-0.9,0.1-1.9-0.1-2.7-0.5l-0.1-0.1&#10;&#9;&#9;c-0.7-0.4-1.1-0.9-1.2-1.3c0-0.5,0.2-1,0.7-1.3l1.1,0.7c-0.2,0.2-0.4,0.5-0.4,0.8c0.1,0.3,0.3,0.6,0.6,0.7h0.1&#10;&#9;&#9;c0.5,0.3,1.1,0.4,1.6,0.3c0.8-0.1,1.5-0.4,2.1-0.9l0.3-0.2c-0.5,0.2-1,0.2-1.5,0.1c-0.5-0.1-1-0.2-1.4-0.5l-0.1,0&#10;&#9;&#9;c-0.7-0.4-1.1-0.9-1.1-1.4s0.3-0.9,1-1.4c0.4-0.3,0.9-0.4,1.4-0.5c0.5-0.1,1.1-0.1,1.6,0c0.5,0.1,1.1,0.3,1.5,0.6l0.1,0.1&#10;&#9;&#9;C272.7,263.5,273.1,264.1,273,264.7z M271,265.3c0.3-0.2,0.5-0.5,0.6-0.9c0-0.3-0.2-0.6-0.8-0.9l-0.1,0c-0.4-0.2-0.8-0.3-1.2-0.3&#10;&#9;&#9;c-0.5,0-0.9,0.1-1.3,0.4c-0.4,0.3-0.6,0.6-0.6,0.9s0.3,0.6,0.7,0.8l0.1,0c0.2,0.1,0.5,0.2,0.8,0.3c0.3,0.1,0.7,0.1,1,0.1&#10;&#9;&#9;C270.4,265.6,270.7,265.5,271,265.3"/>
	<path class="st7_credit-card-1-55" d="M291.8,276.1c-0.3,0.8-0.9,1.5-1.7,1.9c-0.9,0.6-1.9,1-3,1.2c-1,0.1-1.9-0.1-2.8-0.6c-0.1,0-0.1-0.1-0.2-0.1&#10;&#9;&#9;c-1-0.6-1.4-1.2-1.2-1.8c0.4-0.8,1-1.5,1.8-1.9c0.9-0.6,1.9-1,3-1.2c1-0.1,1.9,0.1,2.8,0.6l0.1,0.1&#10;&#9;&#9;C291.6,274.9,292,275.5,291.8,276.1z M288.9,277.3c0.5-0.3,1-0.7,1.3-1.3c0.2-0.4,0-0.7-0.6-1.1h-0.1c-0.5-0.3-1.1-0.4-1.7-0.3&#10;&#9;&#9;c-0.7,0.2-1.4,0.5-2,0.9c-0.6,0.3-1,0.7-1.4,1.3c-0.2,0.4,0,0.7,0.6,1.1l0.1,0c0.5,0.3,1.1,0.4,1.7,0.3&#10;&#9;&#9;C287.6,278.1,288.3,277.8,288.9,277.3"/>
	<polygon class="st7_credit-card-1-55" points="187.7,229.9 191.2,232 190.5,232.4 188,230.9 186.4,232 188.6,233.3 188,233.7 185.8,232.4 &#10;&#9;&#9;184.1,233.5 186.6,234.9 185.9,235.4 182.5,233.3 &#9;"/>
	<polygon class="st7_credit-card-1-55" points="192.1,232.5 193.1,233.1 188.5,236.1 190.6,237.4 189.9,237.8 186.9,236 &#9;"/>
	<polygon class="st7_credit-card-1-55" points="195.9,234.8 196.9,235.4 191.6,238.8 190.7,238.2 &#9;"/>
	<polygon class="st7_credit-card-1-55" points="213.9,245.5 217.4,247.6 216.7,248 214.2,246.6 212.6,247.6 214.9,248.9 214.2,249.3 212,248 &#10;&#9;&#9;210.3,249.1 212.8,250.6 212.1,251 208.7,248.9 &#9;"/>
	<path class="st7_credit-card-1-55" d="M209.7,246.7c0,0.3-0.2,0.6-0.5,0.7c-0.5,0.3-1,0.4-1.5,0.4c-0.6,0-1.2-0.2-1.7-0.5l-0.1-0.1l-2.4-1.4l5.3-3.4&#10;&#9;&#9;l2.4,1.4c0.6,0.4,0.9,0.7,1,1.1s-0.1,0.7-0.5,0.9c-0.3,0.2-0.7,0.3-1.1,0.4c-0.4,0-0.8,0-1.2-0.2&#10;&#9;&#9;C209.5,246.1,209.7,246.4,209.7,246.7z M208.3,246.8c0.3-0.2,0.4-0.4,0.3-0.6s-0.3-0.4-0.6-0.6l-1.2-0.7l-1.7,1.1l1.2,0.7l0.1,0.1&#10;&#9;&#9;c0.3,0.2,0.6,0.3,1,0.3C207.7,247.1,208,247,208.3,246.8 M208.9,243.4l-1.6,1l1.2,0.7h0.1c0.3,0.2,0.6,0.3,0.9,0.3&#10;&#9;&#9;c0.3,0,0.6-0.1,0.9-0.2c0.2-0.2,0.3-0.3,0.3-0.5s-0.2-0.4-0.6-0.6L208.9,243.4"/>
	<path class="st7_credit-card-1-55" d="M205.6,240.7l-3,4.7l-1-0.6l0.7-1l-2.6-1.5l-1.6,0.5l-1-0.6l7.4-2L205.6,240.7z M200.6,242l2,1.2l1.5-2.2&#10;&#9;&#9;L200.6,242"/>
	<polygon class="st7_credit-card-1-55" points="197.9,236 201.8,238.3 201.2,238.8 194.4,239.6 197.3,241.3 196.6,241.8 192.6,239.4 193.3,238.9 &#10;&#9;&#9;200,238.1 197.2,236.4 &#9;"/>
	<polygon class="st7_credit-card-1-55" points="222.9,250.9 223.9,251.5 221.7,252.9 224.6,254.6 226.8,253.2 227.7,253.7 222.5,257.2 221.5,256.6 &#10;&#9;&#9;223.9,255 221,253.4 218.6,254.9 217.7,254.3 &#9;"/>
	<polygon class="st7_credit-card-1-55" points="217.9,247.9 222.2,250.5 221.5,250.9 219.9,249.9 215.3,252.9 214.3,252.3 218.9,249.3 217.2,248.3 &#9;&#10;&#9;&#9;"/>
	<polygon class="st7_credit-card-1-55" points="275,279.7 275.9,280.2 265.3,284.3 264.3,283.7 &#9;"/>
	<path class="st7_credit-card-1-55" d="M276.6,282.8l0.1,0c0.5,0.2,0.8,0.6,1,1.1c0.1,0.4-0.1,0.7-0.6,1c-0.5,0.3-1,0.5-1.6,0.5&#10;&#9;&#9;c-0.7,0.1-1.4,0.1-2.1,0.1c-0.7,0-1.4-0.1-2.1-0.2l2.9,1.7l-0.7,0.5l-4.2-2.4l0.6-0.4c1.3,0.2,2.6,0.3,3.8,0.3&#10;&#9;&#9;c0.8,0.1,1.6-0.1,2.3-0.5c0.3-0.2,0.4-0.4,0.4-0.5s-0.1-0.4-0.5-0.6h-0.1c-0.3-0.2-0.7-0.3-1-0.2c-0.4,0-0.8,0.2-1.1,0.4l-0.9-0.6&#10;&#9;&#9;c0.6-0.4,1.3-0.5,2-0.5C275.4,282.3,276.1,282.5,276.6,282.8z"/>
	<path class="st7_credit-card-1-55" d="M268.5,277.9l0.1,0.1c0.6,0.4,0.9,0.7,1,1.1s-0.1,0.7-0.6,1c-0.5,0.3-1,0.5-1.6,0.5c-0.7,0.1-1.4,0.1-2.1,0.1&#10;&#9;&#9;c-0.7,0-1.4-0.1-2.1-0.2l2.9,1.7l-0.7,0.5l-4.2-2.5l0.6-0.4c1.3,0.2,2.6,0.3,3.8,0.3c0.8,0,1.6-0.1,2.3-0.5&#10;&#9;&#9;c0.2-0.1,0.4-0.3,0.4-0.6c0-0.2-0.1-0.4-0.5-0.6h-0.1c-0.3-0.2-0.6-0.3-1-0.2c-0.4,0-0.8,0.2-1.1,0.4l-1-0.6c0.6-0.4,1.3-0.5,2-0.5&#10;&#9;&#9;C267.4,277.4,268,277.6,268.5,277.9z"/>
	<polygon class="st7_credit-card-1-55" points="263.5,275.1 265.5,276.2 260.2,279.6 259.2,279 263.6,276.1 262.8,275.6 &#9;"/>
	<path class="st7_credit-card-1-55" d="M279.8,284.6l3.9,2.3l-0.8,0.5l-3-1.8l-1.6,1c0.3,0,0.6,0,0.9,0.1c0.3,0.1,0.6,0.2,0.9,0.3l0.1,0.1&#10;&#9;&#9;c0.3,0.2,0.6,0.4,0.8,0.8c0.1,0.2,0.1,0.5,0,0.8c-0.2,0.3-0.4,0.5-0.7,0.7c-0.6,0.4-1.2,0.6-1.9,0.5c-0.7,0-1.3-0.2-1.9-0.5&#10;&#9;&#9;l-0.1-0.1c-0.5-0.2-0.9-0.7-1.1-1.2c-0.1-0.5,0.1-0.9,0.5-1.1l1,0.6c-0.2,0.1-0.3,0.4-0.2,0.6c0.1,0.3,0.3,0.5,0.5,0.6h0.1&#10;&#9;&#9;c0.3,0.2,0.7,0.3,1.1,0.3c0.4,0,0.8-0.1,1.1-0.4c0.3-0.2,0.5-0.4,0.5-0.7s-0.2-0.5-0.6-0.7h0c-0.2-0.1-0.5-0.2-0.8-0.3&#10;&#9;&#9;c-0.3-0.1-0.6-0.1-0.8,0l-0.9-0.6L279.8,284.6z"/>
	<path class="st7_credit-card-1-55" d="M347.1,270.6l-2.7,4.2l-1.1-0.7l0.6-0.8l-2.2-1.3l-1.4,0.4l-1.1-0.7l6.7-1.9L347.1,270.6z M342.6,271.7l1.6,1&#10;&#9;&#9;l1.2-1.8L342.6,271.7"/>
	<path class="st7_credit-card-1-55" d="M340.5,270c0,0.3-0.2,0.5-0.4,0.7c-0.4,0.3-0.9,0.4-1.4,0.3c-0.5,0-1.1-0.2-1.5-0.5l-0.1-0.1l-2.3-1.4l4.7-3&#10;&#9;&#9;l2.3,1.4c0.5,0.3,0.9,0.6,1,1s0,0.6-0.4,0.8c-0.3,0.2-0.6,0.3-1,0.3c-0.4,0-0.7-0.1-1.1-0.2C340.4,269.4,340.5,269.7,340.5,270z&#10;&#9;&#9; M339.1,269.9c0.2-0.1,0.3-0.3,0.2-0.5c-0.1-0.2-0.3-0.4-0.5-0.5l-1-0.6l-1.3,0.9l1,0.6l0,0c0.2,0.1,0.5,0.2,0.8,0.3&#10;&#9;&#9;C338.6,270.1,338.8,270,339.1,269.9 M339.7,267.1l-1.2,0.8l1,0.6l0.1,0c0.2,0.1,0.4,0.2,0.7,0.2c0.2,0,0.5,0,0.7-0.2&#10;&#9;&#9;c0.2-0.1,0.3-0.3,0.2-0.4s-0.2-0.3-0.5-0.5L339.7,267.1"/>
	<polygon class="st7_credit-card-1-55" points="355.3,275.4 356.4,276.1 354.2,277.5 358.4,277.3 359.7,278.1 355,278.2 354.9,281.1 353.6,280.4 &#10;&#9;&#9;353.8,277.8 351.6,279.2 350.5,278.5 &#9;"/>
	<polygon class="st7_credit-card-1-55" points="349.7,272.1 350.8,272.8 350,276.3 353.2,274.2 354.3,274.9 349.5,277.9 348.5,277.3 349.3,273.8 &#10;&#9;&#9;346,275.8 345,275.2 &#9;"/>
	<ellipse class="st8_credit-card-1-55" cx="280.2" cy="303.4" rx="10.3" ry="6.4"/>
	<ellipse class="st9_credit-card-1-55" cx="289.6" cy="308.5" rx="10.3" ry="6.4"/>
</g>
</svg>