<svg id="_0072_music" xmlns="http://www.w3.org/2000/svg" xmlns:xlink="http://www.w3.org/1999/xlink" viewBox="0 0 500 500" data-imageid="music-36" imageName="Music" class="illustrations_image" style="width: 188px;"><defs><style>.cls-1_music-36{fill:url(#linear-gradient);}.cls-1_music-36,.cls-2_music-36,.cls-3_music-36,.cls-4_music-36,.cls-5_music-36,.cls-6_music-36,.cls-7_music-36,.cls-8_music-36,.cls-9_music-36,.cls-10_music-36,.cls-11_music-36,.cls-12_music-36,.cls-13_music-36,.cls-14_music-36,.cls-15_music-36,.cls-16_music-36,.cls-17_music-36,.cls-18_music-36,.cls-19_music-36,.cls-20_music-36,.cls-21_music-36,.cls-22_music-36{stroke-width:0px;}.cls-2_music-36{isolation:isolate;opacity:.18;}.cls-2_music-36,.cls-22_music-36{fill:#68e1fd;}.cls-3_music-36{fill:url(#linear-gradient-11-music-36);}.cls-4_music-36{fill:url(#linear-gradient-12-music-36);}.cls-5_music-36{fill:url(#linear-gradient-13-music-36);}.cls-6_music-36{fill:url(#linear-gradient-10-music-36);}.cls-7_music-36{fill:url(#linear-gradient-17-music-36);}.cls-8_music-36{fill:url(#linear-gradient-16-music-36);}.cls-9_music-36{fill:url(#linear-gradient-15-music-36);}.cls-10_music-36{fill:url(#linear-gradient-18-music-36);}.cls-11_music-36{fill:url(#linear-gradient-14-music-36);}.cls-23_music-36{stroke-width:.69px;}.cls-23_music-36,.cls-24_music-36{fill:none;stroke:#fff;stroke-miterlimit:10;}.cls-24_music-36{stroke-width:.8px;}.cls-12_music-36{fill:url(#linear-gradient-4-music-36);}.cls-13_music-36{fill:url(#linear-gradient-2-music-36);}.cls-14_music-36{fill:url(#linear-gradient-3-music-36);}.cls-15_music-36{fill:url(#linear-gradient-8-music-36);}.cls-16_music-36{fill:url(#linear-gradient-9-music-36);}.cls-17_music-36{fill:url(#linear-gradient-7-music-36);}.cls-18_music-36{fill:url(#linear-gradient-5-music-36);}.cls-19_music-36{fill:url(#linear-gradient-6-music-36);}.cls-20_music-36{fill:#231f20;}.cls-21_music-36{fill:#ffb4a3;}</style><linearGradient id="linear-gradient-music-36" x1="465.58" y1="-878.79" x2="477.71" y2="-878.79" gradientTransform="translate(-206.93 937.44)" gradientUnits="userSpaceOnUse"><stop offset="0" stop-color="#000"/><stop offset="1" stop-color="#000" stop-opacity="0"/></linearGradient><linearGradient id="linear-gradient-2-music-36" x1="258.09" y1="88.77" x2="261.02" y2="127.87" gradientTransform="matrix(1,0,0,1,0,0)" xlink:href="#linear-gradient-music-36"/><linearGradient id="linear-gradient-3-music-36" x1="472.71" y1="-864.41" x2="489.5" y2="-864.41" gradientTransform="translate(-206.93 937.44)" xlink:href="#linear-gradient-music-36"/><linearGradient id="linear-gradient-4-music-36" x1="445.35" y1="-835.75" x2="458.15" y2="-835.75" xlink:href="#linear-gradient-music-36"/><linearGradient id="linear-gradient-5-music-36" x1="424.1" y1="-871.5" x2="446.45" y2="-871.5" xlink:href="#linear-gradient-music-36"/><linearGradient id="linear-gradient-6-music-36" x1="433.74" y1="-898.68" x2="454.04" y2="-898.68" xlink:href="#linear-gradient-music-36"/><linearGradient id="linear-gradient-7-music-36" x1="433.74" y1="-898.33" x2="453.03" y2="-898.33" xlink:href="#linear-gradient-music-36"/><linearGradient id="linear-gradient-8-music-36" x1="475.23" y1="3928.53" x2="33.28" y2="3554.44" gradientTransform="translate(-206.93 4078.48) scale(1 -1)" gradientUnits="userSpaceOnUse"><stop offset="0" stop-color="#231f20" stop-opacity="0"/><stop offset="1" stop-color="#231f20"/></linearGradient><linearGradient id="linear-gradient-9-music-36" x1="401.75" y1="3957.09" x2="407.26" y2="3902.18" xlink:href="#linear-gradient-8-music-36"/><linearGradient id="linear-gradient-10-music-36" x1="530.19" y1="3994.97" x2="598.38" y2="3839.95" xlink:href="#linear-gradient-8-music-36"/><linearGradient id="linear-gradient-11-music-36" x1="480.21" y1="3958.16" x2="488.17" y2="3906.57" xlink:href="#linear-gradient-8-music-36"/><linearGradient id="linear-gradient-12-music-36" x1="453.33" y1="3956.21" x2="483.03" y2="3897.66" xlink:href="#linear-gradient-8-music-36"/><linearGradient id="linear-gradient-13-music-36" x1="577.32" y1="3773.03" x2="229.12" y2="3615.01" xlink:href="#linear-gradient-8-music-36"/><linearGradient id="linear-gradient-14-music-36" x1="509.75" y1="3797.76" x2="-386.25" y2="3391.11" xlink:href="#linear-gradient-8-music-36"/><linearGradient id="linear-gradient-15-music-36" x1="334.63" y1="3653.96" x2="367.55" y2="3618.58" xlink:href="#linear-gradient-8-music-36"/><linearGradient id="linear-gradient-16-music-36" x1="557.13" y1="3697.19" x2="561.37" y2="3619.52" gradientTransform="translate(-206.93 4078.48) scale(1 -1)" gradientUnits="userSpaceOnUse"><stop offset="0" stop-color="#000" stop-opacity="0"/><stop offset=".86" stop-color="#000" stop-opacity=".66"/><stop offset=".99" stop-color="#000"/></linearGradient><linearGradient id="linear-gradient-17-music-36" x1="564.89" y1="3677.95" x2="561.09" y2="3640.23" xlink:href="#linear-gradient-16-music-36"/><linearGradient id="linear-gradient-18-music-36" x1="334.96" y1="3651.63" x2="354.83" y2="3698.06" xlink:href="#linear-gradient-8-music-36"/></defs><path id="background_music-36" class="cls-2_music-36 targetColor" d="M200.52,69.15c-11.74,21.33-16.09,47.4-33.69,64.29-8.96,8.65-20.54,13.88-31,20.62-21.56,13.87-39,35.28-44.31,60.33-5.31,25.05,2.94,53.51,23.39,68.89,17.52,13.16,41.7,16.01,57.72,31,29.81,27.74,20.26,85.61,55.81,105.51,17.84,9.99,40.91,5.31,57.8-6.26s28.79-28.78,40.27-45.67c20.37-29.81,40.74-59.59,61.12-89.34,9.52-13.88,19.19-28.14,22.76-44.55,4.59-21.25-2.17-44.55-17.45-60.01-20.37-20.54-54.54-28.22-65.56-55-5.46-13.4-3.57-28.54-2.77-42.97,4.44-81.52-96.56-56.94-124.07-6.84Z" style="fill: rgb(26, 91, 237);"/><g id="character_music-36"><path class="cls-1_music-36" d="M261.96,51.86c1.19.4,8.8,13.64,8.8,13.64l-3.33-.64s-2.17-6.11-8.8-6.11c0,.16.67-7.76,3.33-6.9Z"/><path class="cls-22_music-36 targetColor" d="M362.24,371.03s-18.05,4.51-21.26-2.95c-.18-.4-.31-.82-.38-1.26-1.66-9.2,3.33-49.15,3.33-49.15,0,0-42.49-29.18-60.78-24.18-15.48,4.2-91.74,82.93-115.45,107.58-4.24,4.42-10.8,5.72-16.4,3.25-6.04-2.7-8.74-9.78-6.04-15.81.29-.65.64-1.28,1.04-1.87l78.99-114.03,4.42-6.39,71.75-15.2s74.12,30.84,81.65,43.37c7.53,12.53-20.86,76.63-20.86,76.63Z" style="fill: rgb(26, 91, 237);"/><path class="cls-22_music-36 targetColor" d="M307.05,237.77c-.08,6.98-1.03,14.19-4.75,20.05-6.43,10.13-19.35,13.75-31.08,16.49-7.37,1.74-14.91,3.49-22.51,2.77s-15.24-4.25-18.98-10.85c-.01-.03-.03-.06-.05-.08-2.29-4.12-2.85-8.96-3.33-13.64-2.53-23.16-5.07-46.75-3.26-69.9.46-6.13,1.27-12.23,2.42-18.27.35-1.85.72-3.69,1.17-5.53,1.8-7.86,5.89-20.67,12.67-28.5,3.68-4.26,8.16-7.05,13.49-6.77,6.66.4,13.4,1.03,20.06,1.9,4.83.72,9.99,1.58,13.71,4.83,6.27,5.39,6.19,14.99,6.58,23.31,1.36,28.46,14.13,55.69,13.87,84.19Z" style="fill: rgb(26, 91, 237);"/><path class="cls-21_music-36" d="M249.99,125.28c.16,3.73,13.8,12.15,16.64,10.72,4.69.59,6.26-.66,7.06-4.07,1.11-4.75,1.51-9.99-.64-14.47-1.66-3.57-4.83-6.34-8.4-8.08-3.73-1.82-15.2-6.03-18.24-1.35-2.32,3.55,3.47,12.8,3.57,17.24Z"/><path class="cls-13_music-36" d="M249.99,125.28c.16,3.73,13.8,12.15,16.64,10.72,4.69.59,6.26-.66,7.06-4.07,1.11-4.75,1.51-9.99-.64-14.47-1.66-3.57-4.83-6.34-8.4-8.08-3.73-1.82-15.2-6.03-18.24-1.35-2.32,3.55,3.47,12.8,3.57,17.24Z"/><ellipse class="cls-14_music-36" cx="267.75" cy="73.03" rx="10.62" ry="11.65"/><path class="cls-21_music-36" d="M267.03,62.96c1.2,1.56,2.21,3.26,3.02,5.07,3.73,7.45,7.45,14.83,11.17,22.28,1.74,3.57,3.62,7.45,2.86,11.41-.46,2.21-1.52,4.24-3.08,5.88-2.35,2.7-5.35,4.75-8.73,5.95-5.15,1.82-11.01,1.51-16.25-.24s-9.91-4.76-14.19-8.25c-3.41-2.77-6.66-5.94-8.57-9.99-1.58-3.49-1.82-16.88-.95-19.58,2.37-8,8.39-11.67,15.6-14.67,6.66-2.69,13.79-4.44,19.1,2.14Z"/><path class="cls-20_music-36" d="M249.43,36.57c2.79-2.56,6.26-4.27,9.99-4.91,3.49-.64,7.29-.32,10.3,1.66s4.99,5.63,4.2,9.12c-1.27,6.26-9.41,8.24-13.03,13.55-1.51,2.17-2.17,4.75-3.25,7.13-2.3,4.6-7.37,8.24-12.45,7.13-2.7-.64-5.79-2.38-7.96-.64-1.66,1.35-.56,3.97-1.19,6.03-5.39,18.39,9.2,27.82,8.68,28.94-.88,2.17-19.58,2.69-21.88,2.29s-4.2-1.9-5.79-3.57c-4.52-4.52-7.53-11.41-5.31-17.44.88-2.37,2.46-4.52,2.54-7.06.08-2.3-1.19-4.34-1.98-6.51-3.17-8.17.56-18.39,8.17-22.67,2.35-1.21,4.82-2.18,7.37-2.89,4.12-1.27,8.25-2.3,12.37-3.49,3.97-1.22,6.19-4,9.2-6.69Z"/><path class="cls-12_music-36" d="M248.08,98.88c1.9,6.82-1.11,13.55-6.74,15.14-5.63,1.58-11.66-2.69-13.56-9.51s1.11-13.56,6.74-15.15c5.63-1.58,11.65,2.68,13.55,9.52Z"/><path class="cls-18_music-36" d="M239.52,94.43l-9.91,2.46c-27.9-47.33-.47-60.73,1.9-61.83.08,0,.08-.08.16-.08-1.99,1.35-3.64,3.14-4.83,5.23-10.3,17.82,12.69,54.22,12.69,54.22Z"/><path class="cls-19_music-36" d="M247.14,39.5l-1.03.56-5.87,3.17c-6.58-4.01-10.93-3.81-13.5-2.93.69-1.2,1.56-2.3,2.57-3.25.74-.72,1.53-1.39,2.37-1.98h0c6.64-3.17,15.46,4.44,15.46,4.44Z"/><path class="cls-17_music-36" d="M246.1,40.05l-5.87,3.17c-6.58-4.01-10.93-3.81-13.5-2.93.69-1.2,1.56-2.3,2.57-3.25.47-.4,1.03-.88,1.58-1.27h0c6.02-2.85,13.79,3.1,15.22,4.28Z"/><path class="cls-22_music-36 targetColor" d="M239.13,139.15c1.19,2.17.4,4.83-.4,7.13-1.45,4.12-4.24,13.48-7.53,21.81-2.53,6.4-5.36,12.19-8.1,14.52-.14.12-.28.24-.43.34-5.14-15.85-14.47-13.6-24.29-15.74-8.8-1.9-29.1-3.73-37.98-5.23-14.27-2.37-21.88-1.11-21.48-13.55.23-9.28,7.76-17.12,16.17-21.17,8.4-4.05,17.84-5.31,26.88-7.69,9.36-2.45,17.92-9.04,27.11-11.33,7.61-1.82,12.45,3.33,15.92,10.93.49.87.69,1.87.56,2.86-.34.96-.98,1.79-1.82,2.37-11.95,10.33-17.99,8.49-32.97,13.32,12.78-1.35,30.08-6.39,48.58-7.42,2.16-.13,4.33-.2,6.51-.2,1.74,0-7.55,7.45-6.74,9.04Z" style="fill: rgb(26, 91, 237);"/><path class="cls-22_music-36 targetColor" d="M397.68,68.83c-.24,1.45-1.27,2.53-2.38,3.57-10.62,10.3-21.33,20.61-31.95,30.83-17.44,16.89-34.88,33.69-52.32,50.58-6.74,6.51-14.59,13.47-24.02,13.31-1.98-8.64-7.13-24.02-4.99-32.74.35-1.45-2.37-5.89-1.45-7.1.19-.26,7.48-.95,9.65-2.34,4.42-2.85,9.65-5.13,13.29-7.53,18.54-12.14,35.8-26.14,51.51-41.77,7.84-7.85,15.85-16.4,25.51-21.31,1.34-.69,2.73-1.3,4.14-1.83,1.68-.63,3.39-1.14,5.14-1.51,2.3,4.67,4.6,9.35,6.9,14.03.56,1.19,1.19,2.46.96,3.81Z" style="fill: rgb(26, 91, 237);"/><path class="cls-21_music-36" d="M393.89,45.45c.48-4.67.16-9.67,2.17-13.87.47-1.03,1.51-2.22,2.61-1.9.96.24,1.35,1.45,1.58,2.37.72,3.97.08,8.33,2.06,11.9,4.6-6.43,9.12-12.92,13.75-19.34.79-1.11,1.9-2.3,3.17-1.9-.24,6.02-3.41,11.49-6.43,16.64,1.27-1.27,3.57-.39,4.34,1.19s.32,3.49-.48,5.07c1.5-1.05,3.56-.68,4.6.82.95,1.36.75,3.22-.48,4.34l10.54-3.09c.08,1.9-1.74,3.17-3.41,4.12-11.89,6.9-23.94,13.88-37.26,17.05-2.46-3.89-5.47-8.4-2.17-12.05,3.07-3.56,4.89-6.34,5.38-11.33Z"/><path class="cls-21_music-36" d="M403.07,47.9c-.38.76-.15,1.69.55,2.17.42.2.89.28,1.35.24,2.12-.06,4.18-.72,5.94-1.9-2.21,1.66-4.52,3.49-5.39,6.11-.2.34-.2.76,0,1.11.2.25.48.42.8.48,2.61.48,4.99-1.51,7.37-2.77,1.51-.8,3.09-1.35,4.59-2.22,1.53-.77,2.7-2.11,3.25-3.73.24-.63.09-1.35-.39-1.82-.58-.29-1.27-.26-1.82.08-1.74.63-3.49,1.27-5.23,1.98,2.17-1.52,3.53-3.94,3.72-6.58.04-.41-.04-.82-.23-1.19-1.45-2.06-6.35.96-7.77,1.98-.95.72-1.82,1.58-2.77,2.38-1.27,1-3.26,2.11-3.97,3.69Z"/><path class="cls-21_music-36" d="M223.59,93.65c-1.11,0-1.74,1.19-2.17,2.22-.6,1.81-.82,3.72-.64,5.62.1,1.33.6,2.59,1.45,3.62,2.77,3.1,7.06-.72,7.06-4.04.01-2.19-3.24-7.5-5.69-7.42Z"/><path class="cls-21_music-36" d="M339.09,387.36c-.59,2.44-.91,4.94-.96,7.45-.02.47.09.93.32,1.35.31.44.76.78,1.27.96,5.49,2.6,11.79,2.94,17.53.95.69-.16,1.3-.55,1.74-1.11.47-.84.47-1.86,0-2.7-.46-.79-.96-1.56-1.51-2.29-1.66-2.7-1.51-6.03-1.19-9.2.41-3.81,1.02-7.59,1.82-11.34.24-1.03-13.63-2.61-15.46-.47-1.19,1.35-1.19,4.83-1.51,6.51-.64,3.3-1.35,6.56-2.06,9.89Z"/><path class="cls-22_music-36 targetColor" d="M344.57,386.01c-1.6-.65-3.28-1.08-4.99-1.27-1.74-.08-3.57.56-4.44,2.06-.37.66-.58,1.38-.64,2.13-1.11,5.95-2.21,11.9-3.41,17.92-.24.8-.24,1.66,0,2.46.4,1.11,1.58,1.82,2.78,2.22,3.73,1.35,7.76,1.45,11.65,1.51l40.52.72c.6.05,1.2-.06,1.74-.32,1.45-.8.88-3.02-.08-4.28-3.17-4.59-8.68-6.82-13.71-9.28-2.66-1.21-5.15-2.77-7.39-4.65-1.9-1.74-3.09-4.91-5.31-6.27-1.74-1.03-3.81-.72-5.71-.79-3.74-.29-7.44-1.02-11.01-2.17Z" style="fill: rgb(26, 91, 237);"/><path class="cls-22_music-36 targetColor" d="M341.71,421.29c3.41.16,6.74,1.45,10.13,1.98,3.58.44,7.19.52,10.78.24,5.46-.32,11.01-.56,16.48-.87,2.22-.08,4.6-.24,6.51-1.45s3.25-3.62,2.29-5.63c-1.03-2.21-3.96-2.77-6.42-2.93-14.11-1.03-28.38-2.77-42.57-3.17-4.2-.08-10.7.87-10.22,6.58.72,6.44,8.65,5.01,13.01,5.25Z" style="fill: rgb(26, 91, 237);"/><path class="cls-22_music-36 targetColor" d="M362.48,389.45c-.53-1.23-.1-2.67,1.03-3.41,1.16-.69,2.63-.49,3.57.48.96,1.11.96,2.69,1.03,4.12.24,2.9,1.35,5.66,3.18,7.92" style="fill: rgb(26, 91, 237);"/><path class="cls-21_music-36" d="M145.44,394.99c-3.33,5.71-8.89,12.5-13.5,17.18,2.89,5.07,9.83,6.58,15.2,4.52,5.36-2.06,9.36-6.82,12.05-11.97-5.87-1.66-9.18-5.79-13.75-9.73"/><path class="cls-22_music-36 targetColor" d="M155.61,415.46c-.79,1.36-1.73,2.63-2.81,3.77-4.44,4.92-8.88,9.91-13.32,14.83-1.66,1.82-3.33,3.73-5.63,4.52-1.98.72-4.12.55-6.26.39-8.13-.58-16.27-1.22-24.47-1.79l-2.49-.19c-.93,0-1.85-.22-2.69-.63-2.3-1.35-1.9-4.76-.8-7.13,2.46-5.18,6.97-9.09,12.45-10.78,3.81-1.19,7.96-1.27,11.42-3.01,2.85-1.45,4.91-3.73,7.13-5.79,3.17-3.01,3.62-4.12,7.76-2.54,1.5.48,20.54,5.43,20.54,4.3.18,1.41-.12,2.84-.84,4.06Z" style="fill: rgb(26, 91, 237);"/><path class="cls-22_music-36 targetColor" d="M105.89,442.22c8.72,1.11,17.52,2.22,26.24,2.17,2.32.1,4.64-.25,6.82-1.03,2.21-.83,3.83-2.75,4.28-5.07.16-1.19-.24-2.54-1.35-2.94-.31-.09-.63-.15-.96-.16-12.6-1.19-25.12-2.45-37.73-3.62-4.28-.4-9.91.55-10.13,6.02-.2,5.01,9.2,4.15,12.82,4.62Z" style="fill: rgb(26, 91, 237);"/><path class="cls-21_music-36" d="M215.34,108.68c2.54.32,4.76-1.66,5.87-3.96,1.11-2.29,1.35-4.84,2.17-7.24,2.63-6.97,9.75-11.17,17.12-10.13.41.02.79.22,1.03.56.24.48-.16.95-.56,1.35-1.73,1.65-3.82,2.87-6.1,3.57,4.34-1.51,9.41-2.06,13.95-.95-.24.95-1.19,1.58-1.98,2.06-3.62,2.21-7.24,4.34-10.85,6.58,3.73-2.06,7.77-4.28,12.05-4.05.48.88-.4,1.82-1.19,2.38-2.78,2.06-5.47,4.12-8.25,6.18,2-1.22,4.25-1.95,6.58-2.13-1.45,3.01-5.31,3.8-7.29,6.51-.64,1.07-1.19,2.18-1.66,3.33-1.76,3.82-4.82,6.88-8.64,8.64-.72.32-1.58.56-2.22.08-.3-.28-.52-.63-.64-1.03-1.94-4.75-5.11-9.11-9.39-11.75Z"/><path class="cls-24_music-36" d="M264.18,136.52s1.45,15.47.79,21.5c-.66,6.03,8,66.27,8.68,85.69.68,19.42-4.05,18.09-4.05,18.09-11.97,6.03-39.96,4.44-39.96,4.44l-3.09,5.31s19.82,2.37,44.14-3.1c13.59-3.14,26.77-7.79,39.32-13.87l-5.31-2.22s-24.81,8.65-35.12,9.41"/><path class="cls-23_music-36" d="M385.2,51.55s-5.15,8-1.82,15.38c3.33,7.37,9.86,7.37,9.86,7.37"/><path class="cls-15_music-36" d="M269.99,258.84c-3.93,9.16-38.73,7.47-40.25,7.39-.01-.03-.03-.06-.05-.08-2.29-4.12-2.85-8.96-3.33-13.64-2.53-23.16-5.07-46.75-3.26-69.9-.14.12-.28.24-.43.34-5.14-15.85-14.47-13.6-24.29-15.74-8.8-1.9-29.1-3.73-37.98-5.23-14.27-2.37-21.88-1.11-21.48-13.55,0,0,66.33,11.3,78.83,13.54,2.68.45,5.29,1.25,7.76,2.37,2.08.95,4,2.22,5.69,3.76,3.08,2.8,5.07,6.14,7.09,9.49,4.01,6.7,4.91,54.91,8.03,70.53,3.13,15.62,23.66,10.72,23.66,10.72Z"/><path class="cls-16_music-36" d="M167.28,139.55c3.43-2.89,7.86-4.29,12.12-5.72,12.93-4.35,25.5-9.72,37.58-16.06.65-.39,1.36-.66,2.1-.8,2.95-.35,4.6,3.25,5.28,6.14-3.08.72-5.2,3.42-7.62,5.47-7.04,5.94-15.96,5.67-24.34,8.04-3.55,1-6.35,1.89-10.13,2.11l-7.68.43c-1.4.08-6.3-.45-7.31.41Z"/><path class="cls-6_music-36" d="M380.54,54.34l-.29,9.41s-74.85,70.99-104.32,68.31c-5.87-.54,5.31-4,4.62-4.76-.08-.09,9.65-2.34,9.65-2.34,4.42-2.85,9.65-5.13,13.29-7.53,18.55-12.14,35.81-26.14,51.53-41.77,7.84-7.85,15.85-16.4,25.51-21.31Z"/><path class="cls-22_music-36 targetColor" d="M239.35,130.3s9.88,8.68,20.81,7.11c10.93-1.58,4.02-.89,4.02-.89,0,0-14.96-6.7-14.96-12.95s-9.88,6.73-9.88,6.73Z" style="fill: rgb(26, 91, 237);"/><path class="cls-22_music-36 targetColor" d="M280.55,127.29s2.06,6.38-8.1,10.72c-10.16,4.34-3.9,1.32-3.9,1.32,0,0,8.25-14.88,5.01-20.26s7,8.22,7,8.22Z" style="fill: rgb(26, 91, 237);"/><path class="cls-3_music-36" d="M280.55,127.29s.22,1.93-7,6.85l-4.02,2.08s7.24-11.77,4.02-17.11,7,8.18,7,8.18Z"/><path class="cls-4_music-36" d="M239.35,130.3s9.85,8.42,20.81,7.11c3.73-.45,4.34-1.4,4.34-1.4,0,0-15.26-6.19-15.26-12.44s-9.89,6.73-9.89,6.73Z"/><path class="cls-5_music-36" d="M353.47,313.3c-.67,9.41-5.36,54.91-5.36,54.91l-7.12-.12c-.18-.4-.31-.82-.38-1.26-1.66-9.2,3.33-49.15,3.33-49.15,0,0-42.49-29.18-60.78-24.18,0,0,10.75-8.32,19.45-6.98,8.71,1.34,46.21,17.41,46.21,17.41,0,0,5.33,0,4.66,9.38Z"/><path class="cls-11_music-36" d="M251.68,272.45c-6.69,2.68-26.77,26.11-43.53,46.2-15.67,18.81-58.33,70.73-63.68,77.23-.17-.82-.26-1.65-.26-2.48,0-2.41.73-4.76,2.08-6.75l78.98-114.03c10.48,1.05,26.4-.17,26.4-.17Z"/><path class="cls-9_music-36" d="M155.61,415.46c-.79,1.36-1.73,2.63-2.81,3.77-4.44,4.92-8.88,9.91-13.32,14.83-1.66,1.82-3.33,3.73-5.63,4.52-1.98.72-4.12.55-6.26.39-8.13-.58-16.27-1.22-24.47-1.79-.13-.64-.16-1.3-.09-1.95.03-.86.31-1.69.81-2.39.43-.49.97-.87,1.57-1.11,2.07-.92,4.41-.97,6.67-.99l15.46-.2c1.98,0,4.04-.07,5.79-.97.85-.47,1.65-1.03,2.37-1.67,1.93-1.59,3.86-3.18,5.79-4.77,3.32-2.73,6.69-5.5,10.63-7.24,1.07-.55,2.31-.7,3.48-.43Z"/><path class="cls-8_music-36" d="M336.72,389.45c.32-.96,1.3-1.55,2.3-1.37,1.63-.04,3.26.21,4.81.72,3.62,1.4,5.79,5.17,7.24,8.77,1.24,2.95,2.37,6.12,4.83,8.17,1.49,1.1,3.13,1.99,4.86,2.65,3.62,1.61,7.11,3.52,10.42,5.69.24.16.51.39.44.67s-.28.33-.48.41c-1.46.46-3,.67-4.53.62-3.01-.04-6.02-.25-9.01-.62-5.16-.56-10.31-1.24-15.44-2.03-2.44-.3-4.84-.84-7.17-1.61-.66-.21-1.28-.55-1.8-1-.63-.67-1.03-1.53-1.12-2.45-.14-1.68,0-3.37.43-5.01.5-2.49.9-5.01,1.45-7.48.46-1.78,1.46-4.8,2.79-6.12Z"/><path class="cls-7_music-36" d="M338.11,414.31c-1.14-.37-2.32-.54-3.52-.53-1.21.05-2.31.69-2.94,1.72-.72,1.4,0,3.22,1.3,4.15,1.35.84,2.92,1.24,4.51,1.13,1.57-.11,3.15-.1,4.73.04,1.66.26,3.19,1,4.8,1.45,1.79.43,3.61.67,5.45.72,9.35.54,19.04.58,27.69-3,.37-.1.69-.34.89-.67.16-.52-.08-1.07-.57-1.3-.48-.2-1.01-.28-1.53-.23-6.24.11-12.52.55-18.74.12-7.45-.53-14.84-1.73-22.07-3.59Z"/><path class="cls-10_music-36" d="M133.45,419.45c3.52-1.08,6.68-3.08,9.18-5.79.15-.12.24-.3.25-.49-.04-.2-.17-.38-.35-.48-2.66-2.03-5.77-3.4-9.07-4-.59-.15-1.21-.14-1.79.05-.58.31-1.06.78-1.4,1.35-1.81,2.47-3.99,4.65-6.45,6.46-.4.3-.85.68-.8,1.17.08.33.28.62.57.8,2.72,2.1,6.38,2.53,9.52,1.12"/></g><g id="music_note_music-36"><path class="cls-22_music-36 targetColor" d="M362.1,163.81l37.9-19.54-1.7,35.11s-4.07,11.69-9.51,7.34c-5.43-4.35,6.25-11.68,6.25-11.68l.27-16.85-29.07,14.13.55,20.38s-4.34,13.85-8.97,9.23c-4.62-4.62,4.88-13.85,4.88-13.85l-.61-24.27Z" style="fill: rgb(26, 91, 237);"/><path class="cls-22_music-36 targetColor" d="M157.75,207.2l7.74-31.38s12.5,10.05,10.6,17.37-8.97,9.23-8.97,9.23c0,0,3.8-6.24,2.99-8.42s-5.3-5.98-5.3-5.98l-6.1,25.57s-8.15,12.49-11.68,3.53c-3.53-8.96,10.72-9.94,10.72-9.94Z" style="fill: rgb(26, 91, 237);"/></g></svg>