<svg version="1.1" id="Layer_1" xmlns="http://www.w3.org/2000/svg" xmlns:xlink="http://www.w3.org/1999/xlink" x="0px" y="0px" viewBox="0 0 500 500" style="width: 188px;" xml:space="preserve" data-imageid="music-21" imageName="Music" class="illustrations_image">
<style type="text/css">
	.st0_music-21{fill:#FFFFFF;}
	.st1_music-21{fill:#231F20;}
	.st2_music-21{fill:#68E1FD;}
	.st3_music-21{fill:#D1D3D4;}
</style>
<g id="Character_music-21">
	<path class="st0_music-21" d="M248.7,73.5c-0.3-3.7-16.8,7.1-16.8,7.1s14-10.8,12.8-13.4s-17,9.1-17,9.1s14.4-11.1,12.2-13.5&#10;&#9;&#9;s-17.7,10.1-17.7,10.1s15.7-13.8,9.7-14.1c-2.7-0.2-23.8,14.2-46.6,31.4c6.3,7.9,12.8,15.7,19.7,23.2c7.3-7.6,13.1-13.6,13.9-14.6&#10;&#9;&#9;c2.4-3,25.7-1,25.8-4.7s-15.4-5.4-15.4-5.4S248.9,77.2,248.7,73.5z"/>
	<path class="st1_music-21" d="M205,114.1L205,114.1c-0.2,0-0.4-0.1-0.5-0.2c-6.1-6.7-12.4-14-19.8-23.2c-0.1-0.2-0.2-0.3-0.2-0.5&#10;&#9;&#9;c0-0.2,0.1-0.4,0.3-0.5c16.9-12.7,43.3-31.5,47-31.5h0.1c0.9-0.1,1.7,0.4,2,1.2c0.5,1.5-1.3,4.1-3.6,6.8c4.4-2.9,8.8-5.2,10.1-3.7&#10;&#9;&#9;c0.3,0.4,0.5,0.8,0.4,1.3c-0.1,1.3-1.6,3.3-3.6,5.3c3-1.8,5.8-3.1,7.1-2.8c0.4,0.1,0.8,0.4,1,0.8c0.8,1.7-2.2,5.1-5.7,8.3&#10;&#9;&#9;c3.8-2,7.6-3.7,9-2.9c0.5,0.2,0.8,0.7,0.8,1.2l0,0c0.2,3.4-12.5,11.4-17.9,14.7c5,0.7,14,2.4,13.9,5.9c-0.1,2.5-5.3,2.9-13.9,3.4&#10;&#9;&#9;c-5,0.3-11.2,0.6-12.1,1.8c-0.7,0.9-5.3,5.7-13.9,14.7C205.4,114,205.2,114.1,205,114.1z M186.3,90.2c6.9,8.6,12.9,15.7,18.7,22&#10;&#9;&#9;c10.1-10.5,12.8-13.4,13.3-14c1.2-1.6,5.8-1.9,13.2-2.3c4.4-0.2,12.4-0.7,12.5-2c0-1.9-7.6-3.9-14.7-4.6c-0.3,0-0.6-0.3-0.6-0.6&#10;&#9;&#9;c-0.1-0.3,0.1-0.6,0.4-0.8c9.5-5.5,19.2-12.4,19.1-14.4l0,0c0,0,0,0,0-0.1c-1-0.7-8.2,2.8-15.7,7.7c-0.3,0.2-0.8,0.1-1-0.2&#10;&#9;&#9;c-0.2-0.3-0.1-0.7,0.2-0.9c7.2-5.5,13.1-11.4,12.5-12.6c-1.1-0.5-8.4,3.7-15.9,9.3c-0.3,0.2-0.8,0.2-1-0.1c-0.2-0.3-0.2-0.8,0.1-1&#10;&#9;&#9;c4.6-3.5,11.9-10,12.1-12.2c0-0.1,0-0.2,0-0.2c-0.9-1-8.8,3.9-16.7,10.2c-0.3,0.3-0.8,0.2-1-0.1c-0.3-0.3-0.2-0.8,0.1-1&#10;&#9;&#9;c5.6-4.9,11.3-11.1,10.8-12.6c-0.1-0.1-0.4-0.2-0.7-0.2l0,0C229.6,59.4,211.7,71.2,186.3,90.2L186.3,90.2z"/>
	<path class="st1_music-21" d="M123.7,145c-4.7,14.9,23.7,83.5,23.7,83.5l35.3-43.5c-0.8-1.4-18.6-32.3-18.6-32.3s26.3-24.3,40.9-39.4&#10;&#9;&#9;c-6.9-7.5-13.4-15.3-19.7-23.2C157.1,111.3,126.3,136.8,123.7,145z"/>
	<path class="st1_music-21" d="M147.4,229.2h-0.1c-0.2,0-0.5-0.2-0.6-0.4c-1.2-2.8-28.5-69.1-23.7-84l0,0c2.7-8.4,33.7-34.1,61.8-55.3&#10;&#9;&#9;c0.3-0.2,0.7-0.2,1,0.1c0,0,0,0,0,0c7.3,9.2,13.6,16.5,19.7,23.2c0.3,0.3,0.3,0.7,0,1c-13.5,14-37.1,35.9-40.5,39.1&#10;&#9;&#9;c2.3,4,17.6,30.6,18.3,31.8c0.1,0.3,0.1,0.6-0.1,0.8L147.9,229C147.8,229.2,147.6,229.3,147.4,229.2z M185.1,91.1&#10;&#9;&#9;c-26.6,20-58.2,46.1-60.8,54.2l0,0c-4.3,13.4,19.6,73.1,23.2,81.9l34.2-42.2l-18.4-31.9c-0.2-0.3-0.1-0.6,0.1-0.9&#10;&#9;&#9;c0.3-0.2,25.9-24,40.4-38.9C198.1,106.9,192.1,99.8,185.1,91.1z M123.7,145L123.7,145z"/>
	<path class="st0_music-21" d="M207.3,216c2.9,19.9,16.1,36.9,30.6,52.2c8.6,9.2,19.3,18.5,31.8,17.9c6-0.3,11.7-2.9,17-5.8&#10;&#9;&#9;c13.2-7.3,25-17,34.8-28.4c-4,0-7.4-3-7.8-7c5.2,2.5,11.4,1.8,16-1.8c9.8-7.8,5-14.6-2.5-20.4c-11.7-9-21-20.8-27.1-34.2&#10;&#9;&#9;c-9.4-20.9-27.9-48.8-55.4-42.5c-26.4,6.1-33.6,29.8-37.2,53.4C206.6,204.8,206.6,210.4,207.3,216z"/>
	<path class="st1_music-21" d="M268.5,286.8c-12.4,0-22.7-9.1-31.2-18.1c-13.5-14.4-27.8-31.9-30.7-52.6c-0.8-5.6-0.8-11.3,0.1-16.9&#10;&#9;&#9;c1.6-10.1,4.1-23,10.2-33.5c6.3-10.9,15.3-17.6,27.6-20.5c12.5-2.9,36.5-1.2,56.2,42.9c6,13.4,15.3,25,26.9,34&#10;&#9;&#9;c5.6,4.3,8.2,8.1,8.3,12c0,3.3-1.9,6.5-5.8,9.6c-4.4,3.4-10.2,4.3-15.5,2.4c0.9,3,3.7,5,6.8,5c0.3,0,0.6,0.1,0.7,0.4&#10;&#9;&#9;c0.1,0.3,0.1,0.6-0.1,0.8c-9.9,11.5-21.7,21.2-35,28.6c-5,2.8-10.9,5.6-17.3,5.9L268.5,286.8z M252.3,145.8c-2.5,0-5,0.3-7.5,0.9&#10;&#9;&#9;c-26,6-33,28.9-36.7,52.7c-0.9,5.5-0.9,11-0.1,16.5l0,0c2.9,20.3,17,37.6,30.4,51.8c8.5,9.1,18.9,18.2,31.2,17.6&#10;&#9;&#9;c6.1-0.3,11.8-3.1,16.6-5.7c12.7-7.1,24.1-16.2,33.7-27.2c-3.7-0.7-6.6-3.8-7-7.5c0-0.3,0.1-0.5,0.3-0.7c0.2-0.1,0.5-0.2,0.7-0.1&#10;&#9;&#9;c5,2.3,10.8,1.7,15.2-1.7c3.5-2.8,5.3-5.6,5.2-8.4c0-3.3-2.5-6.9-7.7-10.9c-11.8-9.1-21.2-21-27.3-34.5&#10;&#9;&#9;C283.6,153.3,265.1,145.8,252.3,145.8L252.3,145.8z"/>
	<path class="st0_music-21" d="M390.1,278.6c-1.1,4.4-19.5,37.3-19.5,37.3l24,13c0,0,21.7-36.4,23.6-38.8s17.6-23.4,19.7-30.8&#10;&#9;&#9;s-13-12.8-19.2-12.2S391.2,274.1,390.1,278.6z"/>
	<path class="st1_music-21" d="M394.6,329.6c-0.1,0-0.2,0-0.4-0.1l-24-13c-0.2-0.1-0.3-0.3-0.4-0.4c-0.1-0.2,0-0.4,0.1-0.6&#10;&#9;&#9;c6.3-11.3,18.5-33.6,19.4-37.1l0,0c1.2-4.7,22.7-31.5,29.2-32.1c4.7-0.4,14.6,2.5,18.5,7.2c1.5,1.6,2,3.8,1.5,5.9&#10;&#9;&#9;c-2.3,8-19.7,30.8-19.9,31c-1.8,2.4-23.3,38.4-23.5,38.7C395,329.4,394.8,329.5,394.6,329.6z M371.6,315.6l22.7,12.3&#10;&#9;&#9;c2.9-4.9,21.5-36,23.3-38.3c3.7-4.7,17.7-23.8,19.6-30.5c0.4-1.6,0-3.3-1.2-4.6c-3.6-4.4-13-7.1-17.2-6.7c-5.9,0.5-27,27.1-27.9,31&#10;&#9;&#9;C389.8,282.9,374.3,310.8,371.6,315.6L371.6,315.6z"/>
	<path class="st1_music-21" d="M383.2,292.8l-21.4,26.1l-46.2-31l-19.7,36.7c0,0,65.5,49.2,74.8,44.5s37.5-62.7,37.5-62.7L383.2,292.8z"/>
	<path class="st1_music-21" d="M369.1,370c-13.5,0-67.3-40.1-73.7-44.9c-0.3-0.2-0.4-0.6-0.2-0.9l19.7-36.7c0.1-0.2,0.3-0.3,0.5-0.4&#10;&#9;&#9;c0.2,0,0.4,0,0.6,0.1l45.7,30.7l21-25.7c0.2-0.3,0.6-0.3,0.9-0.2l24.9,13.6c0.3,0.2,0.5,0.6,0.3,0.9c-1.2,2.4-28.4,58.3-37.8,63&#10;&#9;&#9;C370.3,369.9,369.7,370.1,369.1,370z M296.7,324.4c18.5,13.9,66.3,47.7,73.6,44c8.5-4.3,33.8-55.6,36.8-61.8l-23.8-13l-21.1,25.7&#10;&#9;&#9;c-0.2,0.3-0.6,0.3-0.9,0.1l-45.6-30.6L296.7,324.4z"/>
	<polygon class="st1_music-21" points="402.8,228.8 402.6,292.8 432.9,292.8 432.9,228.8 &#9;"/>
	<path class="st1_music-21" d="M432.9,293.5h-30.2c-0.2,0-0.4-0.1-0.5-0.2c-0.1-0.1-0.2-0.3-0.2-0.5l0.2-63.9c0-0.4,0.3-0.7,0.7-0.7l0,0h30.1&#10;&#9;&#9;c0.4,0,0.7,0.3,0.7,0.7c0,0,0,0,0,0v63.9C433.6,293.2,433.3,293.5,432.9,293.5C432.9,293.5,432.9,293.5,432.9,293.5z M403.4,292.1&#10;&#9;&#9;h28.9v-62.5h-28.7L403.4,292.1z"/>
	<polygon class="st0_music-21" points="405.9,234.5 405.8,284.7 429.8,284.7 429.8,234.5 &#9;"/>
	<path class="st1_music-21" d="M429.8,285.5h-24c-0.2,0-0.4-0.1-0.5-0.2c-0.1-0.1-0.2-0.3-0.2-0.5l0.2-50.2c0-0.4,0.3-0.7,0.7-0.7l0,0h23.9&#10;&#9;&#9;c0.4,0,0.7,0.3,0.7,0.7v50.2C430.5,285.1,430.2,285.5,429.8,285.5C429.8,285.5,429.8,285.5,429.8,285.5z M406.5,284H429v-48.8&#10;&#9;&#9;h-22.4L406.5,284z"/>
	<path class="st0_music-21" d="M388.7,281.9c0,0-4.5-21.5,2.3-24.9s30-7.3,26.4-2c-3.6,5.3-16.2,8.5-16.2,8.5s2.6,7.5-0.2,12.9"/>
	<path class="st1_music-21" d="M388.7,282.6c-0.3,0-0.6-0.2-0.7-0.6c-0.2-0.9-4.5-22.1,2.6-25.7c5.8-2.9,24.7-6.6,27.4-3.5&#10;&#9;&#9;c0.6,0.7,0.6,1.8-0.1,2.5c-3.2,4.8-13.1,7.8-15.9,8.6c0.6,2.1,1.9,8.1-0.5,12.7c-0.2,0.4-0.6,0.5-1,0.3c0,0,0,0,0,0&#10;&#9;&#9;c-0.4-0.2-0.5-0.6-0.3-1c2.7-5,0.2-12.2,0.2-12.3c-0.1-0.2-0.1-0.4,0-0.6c0.1-0.2,0.3-0.3,0.5-0.4c0.1,0,12.4-3.2,15.8-8.2&#10;&#9;&#9;c0.2-0.4,0.3-0.6,0.2-0.7c-1.7-2-19.2,0.6-25.7,3.8c-5.1,2.5-3.1,18.3-1.9,24.1c0.1,0.4-0.2,0.8-0.6,0.9L388.7,282.6z"/>
	<path class="st2_music-21 targetColor" d="M221.5,240.1l-39.8-68.4l-44.9,49.7l16.6,35.9c0,0-25.7,60.6-25.6,179.4c0,0,136.3-0.6,170.6-0.6l-44.9-69.7&#10;&#9;&#9;c0,0,11.2-32.3,17-40.4l33.4,18.2l39-53.1L221.5,240.1z" style="fill: rgb(26, 91, 237);"/>
	<path class="st1_music-21" d="M220.9,305.3c22,12.8,27.2-39.2,28.2-50.5c0.3-3.1,0.4-6.3-0.6-9.3c-1.2-3.8-4.2-6.8-7.2-9.5&#10;&#9;&#9;c-3.5-3.3-7.6-6.6-12.4-6.8c-4.5-0.2-8.7,2.5-11.5,6s-4.2,7.9-5.5,12.2c-5.2,18.1-5,37.2,5,53.6c0.8,1.6,2,2.9,3.5,4L220.9,305.3z"/>
	<path class="st1_music-21" d="M227.5,308c-2.5-0.1-4.8-0.8-6.9-2.1l-0.5-0.3c-1.5-1.1-2.8-2.5-3.7-4.2c-9.2-15.1-10.9-33.8-5.1-54.2&#10;&#9;&#9;c1.2-4.3,2.8-8.8,5.6-12.4c3.2-4.1,7.7-6.4,12.1-6.3c4.9,0.2,9.1,3.5,12.9,7c3,2.8,6,5.8,7.4,9.8c1,3.2,0.8,6.6,0.6,9.6&#10;&#9;&#9;c-1.5,16.8-5.8,45.9-17.6,52C230.8,307.6,229.1,308,227.5,308z M228.5,229.9c-3.8,0-7.6,2.1-10.5,5.7s-4.2,7.8-5.4,12&#10;&#9;&#9;c-5.7,20-4,38.4,4.9,53.1c0.8,1.5,1.9,2.7,3.2,3.7l0.5,0.3l0,0c3.8,2.2,7.2,2.5,10.2,0.9c8.2-4.2,14.4-22.8,16.9-50.9&#10;&#9;&#9;c0.2-2.8,0.4-6.1-0.5-9c-1.2-3.7-4.1-6.6-7-9.2c-3.6-3.3-7.5-6.4-12-6.6L228.5,229.9z"/>
	<path class="st1_music-21" d="M286.6,207.7c2,7.4-1.3,16.8-6.3,22.2c-3.3,3.6-10.6,4.6-12.1-1.3c-1.9-7.8-0.5-16,3.7-22.8&#10;&#9;&#9;c3.3-5.3,9.3-8.3,13.3-1.5C285.8,205.4,286.3,206.6,286.6,207.7z"/>
	<path class="st1_music-21" d="M273.7,233.6c-0.6,0-1.2-0.1-1.8-0.2c-2.2-0.5-3.9-2.3-4.3-4.5c-1.9-8-0.5-16.4,3.8-23.3&#10;&#9;&#9;c2.2-3.6,5.4-5.8,8.4-5.8c1.7,0,4.1,0.8,6.1,4.3c0.6,1.1,1.1,2.3,1.5,3.5l0,0c2.2,8-1.6,17.6-6.5,22.9&#10;&#9;&#9;C279,232.4,276.4,233.5,273.7,233.6z M279.6,201.2c-2.4,0-5.1,1.9-7.1,5.1c-4.1,6.6-5.5,14.6-3.6,22.2c0.3,1.7,1.6,3.1,3.3,3.5&#10;&#9;&#9;c2.8,0.5,5.6-0.4,7.6-2.5c4.5-4.9,8.2-14.1,6.1-21.6l0,0c-0.3-1.1-0.8-2.2-1.3-3.2C283.2,202.4,281.6,201.2,279.6,201.2&#10;&#9;&#9;L279.6,201.2z"/>
	<path class="st0_music-21" d="M252.3,240.8c-3.3,12.3-6.4,40.2-26.8,25.6c-2.1-1.7-3.9-3.6-5.4-5.8c-10-13.4-7.2-21.8-2-36.5&#10;&#9;&#9;c2.2-6.4,4.2-12.9,6.4-19.2s5.9-12.4,8.9-18.5c-0.1,0.2,10,1.6,20.1-3S272,174,272,174c2.7,4.1,5.7,7.2,7.1,12.1&#10;&#9;&#9;c1.3,4.7,1.7,9.7,1.1,14.5c-1.3,12-6.1,24.9-11.5,35.5S252.3,240.8,252.3,240.8z"/>
	<path class="st1_music-21" d="M235.8,271.2c-3.2,0-6.8-1.4-10.7-4.3c-2.2-1.7-4-3.7-5.6-6c-10.4-13.8-7.2-22.6-2.1-37.2&#10;&#9;&#9;c1.1-3.1,2.1-6.2,3.1-9.2c1.1-3.3,2.2-6.7,3.4-10c1.8-4.6,3.9-9.2,6.3-13.5c0.9-1.7,1.8-3.4,2.6-5.1l0,0c0.2-0.4,0.6-0.5,1-0.3&#10;&#9;&#9;c0,0,0,0,0,0h0.1c6.6,0.8,13.3-0.3,19.4-3c10-4.6,18.3-9.3,18.4-9.3c0.3-0.2,0.8-0.1,1,0.2c0,0,0,0,0,0c0.7,1,1.4,2,2.1,2.9&#10;&#9;&#9;c2.1,2.9,4,5.6,5.2,9.3c1.4,4.8,1.8,9.9,1.2,14.8c-1.1,10.7-5.3,23.4-11.6,35.8c-1.3,3-3.8,5.2-6.9,6.3c-4.1,1.3-8.1-0.1-9.8-0.9&#10;&#9;&#9;c-0.3,1.3-0.6,2.7-1,4.2c-2.1,9.2-5,21.7-12.6,24.6C238.1,271,236.9,271.2,235.8,271.2z M233.9,187.1c-0.8,1.5-1.6,3.1-2.4,4.6&#10;&#9;&#9;c-2.4,4.3-4.5,8.7-6.2,13.3c-1.2,3.3-2.3,6.7-3.3,9.9c-1,3-2,6.2-3.1,9.3c-5.2,14.6-8,22.7,1.9,35.9c1.5,2.1,3.2,4,5.2,5.6&#10;&#9;&#9;c5,3.6,9.3,4.8,12.7,3.5c6.9-2.6,9.7-14.7,11.7-23.6c0.4-1.9,0.8-3.6,1.2-5.1c0.1-0.4,0.5-0.6,0.9-0.5c0.1,0,0.1,0,0.1,0.1&#10;&#9;&#9;c0.1,0,4.9,2.6,9.5,1.2c2.7-0.9,4.9-2.9,6-5.5c6.2-12.2,10.3-24.8,11.4-35.3c0.6-4.8,0.2-9.6-1.1-14.2c-1-3.5-3-6.1-5-8.9&#10;&#9;&#9;c-0.6-0.8-1.1-1.6-1.7-2.4c-2.1,1.2-9.5,5.2-18,9.1S236.7,187.7,233.9,187.1z"/>
	<path class="st1_music-21" d="M248.9,252.6c0,0-9.9-2.2-14.4-10.5s-1.8-14.6-1.8-14.6s8.6,10,19.6,13.2L248.9,252.6z"/>
	<path class="st1_music-21" d="M248.9,253.3h-0.2c-0.4-0.1-10.3-2.4-14.9-10.8s-1.9-14.9-1.8-15.2c0.1-0.2,0.3-0.4,0.5-0.4&#10;&#9;&#9;c0.2,0,0.5,0,0.6,0.2c0.1,0.1,8.6,9.9,19.2,13c0.4,0.1,0.6,0.5,0.5,0.9l-3.4,11.8C249.5,253.1,249.2,253.3,248.9,253.3z M233,228.9&#10;&#9;&#9;c-0.9,4.4-0.2,9,2.1,12.9c3.7,6.7,11.1,9.3,13.3,10l3-10.5C242.6,238.4,235.4,231.5,233,228.9z"/>
	<path class="st1_music-21" d="M255,220.6c-2-0.2-4-0.8-5.7-1.8c-0.3-0.2-0.5-0.6-0.3-1c0,0,0,0,0,0c0.2-0.3,0.6-0.5,1-0.3c0,0,0,0,0,0&#10;&#9;&#9;c1.2,0.7,4.8,2.3,6.5,1.2c1-0.7-0.1-7.2-2.5-14.4c-0.1-0.4,0.1-0.8,0.4-0.9c0.4-0.1,0.8,0.1,0.9,0.4c0,0,0,0,0,0&#10;&#9;&#9;c1.4,4.3,4.5,14.4,1.9,16C256.6,220.4,255.8,220.6,255,220.6z"/>
	<path class="st1_music-21" d="M252.1,229.3c-1.7,0-3.3-0.3-4.8-1.1c-4-2-6.4-6.6-7.2-13.8c-0.1-0.4,0.2-0.7,0.6-0.8c0,0,0,0,0,0&#10;&#9;&#9;c0.4-0.1,0.7,0.2,0.8,0.6c0,0,0,0,0,0c0.8,6.7,2.9,11,6.4,12.7c5.3,2.6,12.1-1.4,12.2-1.4c0.3-0.2,0.8-0.1,1,0.2s0.1,0.8-0.2,1&#10;&#9;&#9;C258.1,228.3,255.1,229.1,252.1,229.3z"/>
	<path class="st1_music-21" d="M252.7,197.3c-0.4,0-0.7-0.3-0.7-0.7c-0.1-1.6-0.6-2.6-1.4-3c-1.7-0.8-4.6,0.7-5.6,1.3c-0.3,0.2-0.8,0.1-1-0.3&#10;&#9;&#9;c-0.2-0.3-0.1-0.7,0.2-0.9c0.2-0.1,4.3-2.8,7-1.4c1.3,0.6,2,2.1,2.2,4.2C253.5,196.9,253.2,197.3,252.7,197.3L252.7,197.3z"/>
	<path class="st1_music-21" d="M270.5,205.3c-0.4,0-0.7-0.3-0.7-0.6c0,0-0.3-3.5-2.3-4.8c-1.7-1.1-3.8,1.5-3.8,1.5c-0.3,0.3-0.7,0.3-1,0&#10;&#9;&#9;c-0.2-0.2-0.3-0.6-0.1-0.9c1-1.3,3.4-3.3,5.7-1.8c2.6,1.7,2.9,5.7,3,5.9C271.3,204.9,271,205.2,270.5,205.3L270.5,205.3z"/>
	<path class="st1_music-21" d="M214.3,201.4c-0.3,2.6,0.2,5.1,1.3,7.4c2.3,4.2,7.9,5.9,12.4,4.6c12-3.6,17.7-26.3,8.6-35.2&#10;&#9;&#9;c-8.4-8.3-17.9,4.9-19.9,12.5C215.8,194.3,214.5,197.7,214.3,201.4z"/>
	<path class="st1_music-21" d="M224.8,214.6c-4.1,0-8.1-2-9.9-5.4c-1.2-2.4-1.6-5.1-1.4-7.8l0,0c0.2-2.7,0.8-5.3,1.7-7.9&#10;&#9;&#9;c0.3-1,0.6-1.9,0.8-2.9c1.4-5.4,6.6-13.7,12.7-15.4c3-0.8,5.9,0,8.4,2.5c4.4,4.3,5.8,12.1,3.7,20.3s-6.9,14.3-12.7,16&#10;&#9;&#9;C227.1,214.4,226,214.5,224.8,214.6z M215,201.4c-0.3,2.4,0.2,4.9,1.2,7.1c2,3.7,7.1,5.6,11.6,4.2c5.3-1.6,9.8-7.3,11.7-15&#10;&#9;&#9;s0.7-15-3.4-19c-2.2-2.1-4.6-2.9-7.1-2.2c-5.5,1.5-10.4,9.5-11.7,14.4c-0.3,1-0.6,2-0.8,3C215.8,196.4,215.2,198.9,215,201.4&#10;&#9;&#9;L215,201.4z"/>
	<path class="st1_music-21" d="M280.7,215.4c-0.9,0-1.6-0.7-1.6-1.6c0-0.3,0.1-0.6,0.2-0.8c0.2-0.3,17.9-29.5,21-47.7&#10;&#9;&#9;c1.1-6.6-1.8-13.3-8.2-18.9c-8.8-7.6-21.9-11-31.1-8.1c-16.5,5.2-25.2,43.1-25.3,43.5c-0.2,0.9-1,1.4-1.9,1.2c0,0,0,0,0,0&#10;&#9;&#9;c-0.9-0.2-1.4-1.1-1.2-1.9c0.4-1.6,9.3-40.1,27.5-45.9c10.4-3.3,24.5,0.3,34.2,8.7c7.3,6.3,10.6,14.1,9.3,21.8&#10;&#9;&#9;c-3.1,18.8-20.6,47.6-21.4,48.8C281.8,215.2,281.3,215.5,280.7,215.4z"/>
	<path class="st1_music-21" d="M367.5,442c-5.7,0-11.4-0.9-16.9-2.7c-5.6-1.8-11.3-5.1-17.7-10.3c-8.9-7.2-16.7-15.8-24.3-24&#10;&#9;&#9;c-4.8-5.3-9.8-10.7-15-15.7c-16.2-15.8-32.4-24.1-48-24.9c-21-1-39.6,11-56.6,24.1c-1.7,1.3-3.3,2.6-5,3.9&#10;&#9;&#9;c-13.8,10.9-29.3,23.2-48.5,20.4c-13.1-2-23.2-11-29.5-18.2c-15.3-17.8-22.3-43.1-18.9-67.9c3.7-26.6,18.5-45.3,44-55.6&#10;&#9;&#9;c21.1-8.6,41-20.6,60.2-32.2l0.1-0.1c11.9-7.2,24.6-16.4,28-30.2c0.1-0.4,0.6-0.7,1-0.5c0.4,0.1,0.6,0.5,0.6,0.9&#10;&#9;&#9;c-3.6,14.4-16.5,23.9-28.7,31.2l-0.2,0.1c-19.3,11.6-39.2,23.7-60.4,32.3c-24.9,10.1-39.4,28.4-43,54.4&#10;&#9;&#9;c-3.4,24.3,3.5,49.1,18.5,66.6c6,7,15.9,15.8,28.5,17.7c18.5,2.8,33.1-8.8,47.3-20c1.7-1.3,3.4-2.7,5-4&#10;&#9;&#9;c17.2-13.3,36.2-25.5,57.7-24.4c16,0.8,32.5,9.3,49,25.4c5.2,5.1,10.2,10.5,15,15.8c7.5,8.2,15.3,16.8,24.1,23.9&#10;&#9;&#9;c6.3,5.1,11.7,8.3,17.2,10c21.6,7,43.2,0.1,64.3-20.4c31.3-30.5,49-76.8,48.4-127.1c-0.3-23.5-4.6-41.9-13.4-56.1&#10;&#9;&#9;c-3.5-5.8-7.9-12.2-15.3-15.4c-3.7-1.6-12.4-2.2-15.8,2.5c-1.3,1.8-1.4,3.9-1.6,6.6c-0.1,1.2-0.1,2.5-0.3,3.9&#10;&#9;&#9;c-0.1,0.4-0.5,0.7-0.9,0.7c-0.4-0.1-0.7-0.5-0.7-0.9c0.2-1.4,0.3-2.6,0.3-3.8c0.2-2.8,0.3-5.3,1.9-7.5c3.9-5.5,13.5-4.9,17.7-3&#10;&#9;&#9;c7.8,3.4,12.3,10.1,16,16c8.9,14.5,13.4,33.2,13.6,57c0.6,50.7-17.2,97.4-48.9,128.3C400.4,434.2,384,442,367.5,442z"/>
	<path class="st1_music-21" d="M212.8,89.4c-0.4,0-0.8-0.4-0.8-0.8c0-0.2,0.1-0.4,0.3-0.6c3.5-3.1,7-4.4,10.4-4c2.9,0.4,5.5,1.9,7.3,4.2&#10;&#9;&#9;c0.3,0.4,0.2,0.9-0.2,1.1c-0.4,0.3-0.9,0.2-1.1-0.2c0,0,0,0,0,0c-1.5-1.9-3.7-3.2-6.2-3.5c-2.9-0.3-6,0.9-9.1,3.6&#10;&#9;&#9;C213.2,89.4,213,89.4,212.8,89.4z"/>
	<path class="st1_music-21" d="M260.5,348.5c-0.1,0-0.2,0-0.3-0.1c-0.4-0.2-0.5-0.6-0.3-1c0,0,0,0,0,0l20.2-40.4c0.2-0.4,0.6-0.5,1-0.4&#10;&#9;&#9;c0,0,0,0,0,0c0.4,0.2,0.5,0.6,0.3,1c0,0,0,0,0,0l-20.2,40.4C261,348.3,260.7,348.5,260.5,348.5z"/>
	<path class="st1_music-21" d="M222.9,356.4c-23.1,0-50.3-7.5-51.8-7.9c-0.4-0.1-0.6-0.5-0.5-0.9c0.1-0.4,0.5-0.6,0.9-0.5c0,0,0,0,0,0&#10;&#9;&#9;c0.5,0.1,49,13.5,71.4,5c0.4-0.1,0.8,0,0.9,0.4c0.1,0.4,0,0.8-0.4,0.9C237.7,355.5,230.5,356.4,222.9,356.4z"/>
	<rect x="415.5" y="224.4" class="st1_music-21" width="3.5" height="5.2"/>
	<path class="st1_music-21" d="M419,230.2h-3.5c-0.4,0-0.7-0.3-0.7-0.7c0,0,0,0,0,0v-5.2c0-0.4,0.3-0.7,0.7-0.7c0,0,0,0,0,0h3.5&#10;&#9;&#9;c0.4,0,0.7,0.3,0.7,0.7v5.2C419.7,229.9,419.4,230.2,419,230.2C419,230.2,419,230.2,419,230.2z M416.2,228.8h2.1v-3.8h-2.1V228.8z"/>
	<path class="st0_music-21" d="M228.2,209.2l-1.1-1.1c12.5-13,4.2-27.4,4.1-27.5l1.4-0.8C232.7,180,241.6,195.4,228.2,209.2z"/>
	<path class="st0_music-21" d="M281,230.2l-1.5-0.6c4.7-12,3.5-20.9,3.5-21l1.6-0.2C284.7,208.8,285.9,217.8,281,230.2z"/>
	
		<rect x="149.9" y="157.9" transform="matrix(0.6993 -0.7148 0.7148 0.6993 -65.8595 160.8353)" class="st0_music-21" width="16.6" height="1.6"/>
	
		<rect x="367.1" y="315.1" transform="matrix(0.4398 -0.8981 0.8981 0.4398 -83.0181 510.8164)" class="st0_music-21" width="1.6" height="13.7"/>
</g>
<g id="songs_music-21">
	<path class="st3_music-21" d="M41.3,239.7c-0.7-0.2-1.4-0.3-2.1-0.5c-2.1-0.5-3.8-2.1-4.4-4.2c-0.4-1.8-0.1-3.7,1-5.2c1.8-2.7,4.6-4.5,7.7-5&#10;&#9;&#9;c2.1-0.4,3-0.3,6.3,0.4v-38.6l37.9-7.6v0.8c0,15.4,0,30.8,0,46.3c0.1,2.4-0.9,4.8-2.8,6.4c-3.3,2.9-7.2,4.1-11.6,2.8&#10;&#9;&#9;c-2.1-0.5-3.8-2.1-4.4-4.1c-0.5-1.8-0.1-3.7,0.9-5.2c1.8-2.7,4.6-4.5,7.7-5c2.2-0.5,3.2-0.3,6.2,0.4V195l-2.7,0.5&#10;&#9;&#9;c-9,1.8-18,3.6-27,5.4c-0.5,0.1-0.6,0.3-0.6,0.7c0,9.4,0,18.7,0,28.1c0.1,2.9-1.3,5.7-3.7,7.3c-1.8,1.3-3.9,2.2-6.1,2.5&#10;&#9;&#9;c-0.1,0-0.2,0.1-0.3,0.1L41.3,239.7z"/>
	<path class="st3_music-21" d="M349.3,124.4c0.3-0.2,0.7-0.3,1-0.5c1-0.5,1.6-1.5,1.6-2.6c0-0.9-0.4-1.8-1.1-2.4c-1.2-1.1-2.8-1.6-4.5-1.5&#10;&#9;&#9;c-1.1,0-2.1,0.4-3,1l-5-19.1l-19.8,1.2l0.1,0.4c2,7.6,4,15.3,6,22.9c0.3,1.2,1.1,2.2,2.2,2.8c1.9,1.1,4.2,1,6.1-0.1&#10;&#9;&#9;c1-0.5,1.6-1.5,1.6-2.6c0-0.9-0.4-1.8-1.1-2.4c-1.2-1.1-2.9-1.6-4.5-1.5c-1.1,0-2.1,0.4-3,1l-3.5-13.1l1.4-0.1l14.1-0.9&#10;&#9;&#9;c0.2,0,0.3,0.1,0.4,0.3c1.2,4.6,2.5,9.3,3.7,13.9c0.3,1.5,1.4,2.6,2.8,3.1c1,0.4,2.2,0.6,3.3,0.4c0.1,0,0.1,0,0.2,0L349.3,124.4z"/>
	<path class="st3_music-21" d="M426.3,385c0-0.3,0-0.6,0-0.9c-0.1-0.8-0.4-1.6-0.9-2.3c-0.8-1.2-1.9-2.2-3.1-2.9c-1.2-0.8-2.6-1.3-4-1.6&#10;&#9;&#9;c-0.9-0.2-1.8-0.2-2.8,0l-0.2,0c0-0.1,0-0.2,0-0.3c0.2-0.6,0.3-1.2,0.5-1.8c1.1-3.7,2.1-7.5,3.2-11.2c1.2-4.1,2.3-8.1,3.5-12.2&#10;&#9;&#9;l0.1-0.2l-1.1-0.1c-3.1-0.2-6.1,0.4-8.9,1.6c-2.6,1.1-4.8,3-6.2,5.5c-0.4,0.7-0.7,1.4-1,2.2c-0.2,0.5-0.4,1-0.6,1.5&#10;&#9;&#9;c0,0.1,0,0.1,0,0.2l0.4-0.2c1.3-0.8,2.6-1.6,4-2.2c2.1-1,4.5-1.4,6.8-1.2c1,0.1,2,0.3,3,0.6h0.1c0,0.1,0,0.2-0.1,0.2l-5.8,20.3&#10;&#9;&#9;c0,0.1,0,0.2,0,0.4c0.1,1.2,0.6,2.3,1.4,3.2c1,1.2,2.3,2.2,3.8,2.9c0.4,0.2,0.8,0.4,1.2,0.5l1.2,0.3h0.2c0.9,0.2,1.9,0.2,2.9,0&#10;&#9;&#9;c0.8-0.1,1.5-0.5,2.1-1.1c0.2-0.2,0.3-0.5,0.5-0.8L426.3,385z"/>
	<path class="st3_music-21" d="M34.9,388.5c0-0.4,0.1-0.8,0.2-1.2c0.3-1.1,0.9-2,1.6-2.8c1.3-1.3,2.8-2.4,4.6-3.1c1.7-0.8,3.6-1.2,5.5-1.2&#10;&#9;&#9;c1.2,0,2.4,0.1,3.5,0.6l0.3,0.1c0-0.1,0-0.3,0-0.4c-0.1-0.8-0.2-1.6-0.2-2.4c-0.6-5-1.2-10.1-1.8-15.1c-0.7-5.5-1.3-10.9-2-16.4&#10;&#9;&#9;v-0.3c0.5,0,1,0,1.5,0.1c3.9,0.4,7.7,1.7,11.1,3.8c3.2,1.9,5.6,4.9,6.9,8.3c0.4,1,0.6,2,0.9,3c0.2,0.7,0.3,1.4,0.5,2&#10;&#9;&#9;c0,0.1,0,0.2,0,0.3c-0.2-0.1-0.3-0.3-0.5-0.4c-1.5-1.3-3-2.5-4.7-3.6c-2.5-1.7-5.4-2.7-8.5-2.9c-1.3-0.1-2.6,0-3.9,0.2h-0.1&#10;&#9;&#9;c0,0.1,0,0.2,0,0.3c1.1,9.1,2.2,18.2,3.3,27.2c0,0.2,0,0.3,0,0.5c-0.4,1.5-1.3,2.9-2.5,3.9c-1.6,1.4-3.4,2.4-5.4,3&#10;&#9;&#9;c-0.6,0.2-1.1,0.3-1.7,0.5l-1.6,0.2h-0.3c-1.3,0.1-2.5-0.1-3.7-0.5c-1-0.3-1.9-1-2.4-1.8c-0.2-0.3-0.3-0.7-0.5-1.1L34.9,388.5z"/>
	<path class="st3_music-21" d="M363.9,192.5c0.2-0.4,0.4-0.8,0.6-1.2c0.7-1.1,1.8-2,2.9-2.5c2-1,4.2-1.6,6.4-1.7c2.2-0.2,4.5,0.1,6.7,0.8&#10;&#9;&#9;c1.4,0.4,2.7,1.1,3.8,2l0.3,0.2c0.1-0.1,0.1-0.3,0.2-0.4c0.2-0.9,0.5-1.9,0.7-2.9c1.3-5.9,2.6-11.8,3.8-17.8&#10;&#9;&#9;c1.4-6.4,2.8-12.9,4.1-19.3l0.1-0.4c0.5,0.2,1.1,0.4,1.6,0.7c4.3,2,8.1,5,11.1,8.7c2.8,3.4,4.4,7.7,4.5,12.1c0,1.3-0.1,2.5-0.2,3.8&#10;&#9;&#9;c-0.1,0.8-0.2,1.7-0.3,2.5c0,0.1,0,0.2-0.1,0.3c-0.1-0.2-0.3-0.4-0.4-0.6c-1.1-2.1-2.4-4.1-3.8-5.9c-2.2-2.9-5.1-5.2-8.4-6.6&#10;&#9;&#9;c-1.4-0.6-3-1-4.5-1.3c0,0-0.1,0-0.1,0c0,0.1,0,0.2-0.1,0.4c-2.3,10.7-4.6,21.3-6.9,31.9c0,0.2-0.1,0.4-0.2,0.5&#10;&#9;&#9;c-1.1,1.6-2.6,2.7-4.4,3.4c-2.3,0.9-4.8,1.4-7.3,1.2c-0.7,0-1.4-0.1-2.1-0.2l-1.8-0.4l-0.3-0.1c-1.5-0.4-2.8-1.1-4-2&#10;&#9;&#9;c-1-0.7-1.7-1.8-2-3c-0.1-0.4-0.1-0.9-0.1-1.4L363.9,192.5z"/>
	<path class="st3_music-21" d="M81.9,265.4c-8.2,0-8.2,12.8,0,12.8S90.1,265.4,81.9,265.4z"/>
	<path class="st3_music-21" d="M374.2,239.4c-0.1-0.5-0.4-1-0.8-1.4l-0.6-0.5c-0.5-0.3-1-0.4-1.6-0.4h-0.9c-0.4,0-0.9,0.1-1.2,0.3&#10;&#9;&#9;c-1.2,0.5-2,1.6-2,2.9l0.1,0.9c0.1,0.5,0.4,1,0.8,1.4l0.6,0.5c0.5,0.3,1.1,0.4,1.6,0.4h0.9c0.4,0,0.9-0.1,1.2-0.3&#10;&#9;&#9;c0.8-0.3,1.4-0.9,1.7-1.7c0.2-0.4,0.3-0.8,0.3-1.2C374.2,240,374.2,239.7,374.2,239.4z"/>
	<path class="st3_music-21" d="M107.1,109.2c-5.2,0-5.2,8,0,8S112.3,109.2,107.1,109.2z"/>
	<path class="st3_music-21" d="M341.4,391.2c-5.1,0-5.2,8,0,8S346.5,391.2,341.4,391.2z"/>
</g>
</svg>